<?xml version="1.0" standalone="no"?>
<!DOCTYPE svg PUBLIC "-//W3C//DTD SVG 20010904//EN"
 "http://www.w3.org/TR/2001/REC-SVG-20010904/DTD/svg10.dtd">
<svg version="1.0" xmlns="http://www.w3.org/2000/svg"
 width="350.000000pt" height="342.000000pt" viewBox="0 0 350.000000 342.000000"
 preserveAspectRatio="xMidYMid meet">

<g transform="translate(0.000000,342.000000) scale(0.100000,-0.100000)"
fill="#000000" stroke="none">
<path d="M2126 3321 c-26 -17 -41 -19 -113 -14 l-84 6 -35 -34 c-34 -33 -34
-34 -28 -98 5 -41 13 -70 25 -82 13 -13 16 -27 12 -53 -6 -38 10 -49 34 -25
16 16 33 2 33 -26 0 -31 -18 -42 -34 -19 -10 12 -15 14 -20 5 -5 -7 -19 -16
-32 -21 -59 -23 -56 -106 6 -171 41 -43 42 -43 121 -24 20 5 37 0 68 -20 22
-15 69 -37 103 -50 52 -18 66 -28 80 -56 33 -68 32 -72 -25 -136 -37 -41 -57
-73 -61 -99 -20 -102 -90 -187 -251 -303 -101 -73 -217 -180 -247 -229 -46
-74 -107 -115 -214 -142 -100 -25 -163 -58 -293 -151 -96 -68 -170 -145 -171
-176 0 -7 -16 -30 -35 -51 -19 -21 -43 -59 -54 -85 -12 -29 -31 -51 -49 -61
-58 -30 -152 -163 -152 -215 0 -62 -222 -210 -315 -211 -73 0 -149 81 -185
198 -23 73 -25 122 -9 190 10 42 27 63 160 192 185 182 194 199 194 355 -1
133 -19 194 -76 259 -74 84 -209 127 -258 82 -36 -33 -27 -64 40 -128 76 -74
104 -132 102 -215 -1 -86 -35 -156 -103 -213 -203 -171 -251 -263 -236 -455
14 -181 80 -311 195 -385 48 -31 49 -32 30 -51 -10 -10 -19 -24 -19 -30 0 -6
-25 -33 -55 -60 -88 -81 -108 -124 -121 -269 -7 -72 16 -117 71 -145 34 -17
59 -20 162 -19 118 1 124 2 164 29 22 16 46 37 53 47 11 15 18 17 40 8 37 -14
36 -14 25 19 -9 27 -101 111 -121 111 -5 0 -6 5 -3 10 4 6 11 7 17 4 6 -4 9
-1 6 7 -2 7 -26 18 -53 24 l-48 10 27 32 c15 18 45 42 66 54 22 12 53 40 70
61 17 21 39 38 49 38 36 0 145 64 196 116 40 41 63 56 99 64 74 16 138 44 202
87 85 57 91 58 130 23 19 -16 46 -33 61 -36 15 -4 46 -22 69 -39 23 -18 62
-37 88 -44 54 -13 59 -31 19 -73 -24 -25 -27 -35 -25 -90 3 -69 12 -85 61
-105 46 -20 101 -9 162 33 28 19 60 34 71 34 43 0 146 33 206 66 55 30 72 34
135 34 54 0 82 5 111 21 25 13 52 19 73 17 40 -5 43 9 8 50 -22 27 -24 33 -13
57 9 20 17 26 35 22 53 -10 30 44 -30 70 -21 10 -36 22 -33 29 10 27 -85 81
-124 71 -11 -3 -20 -3 -20 -1 0 11 27 50 43 62 9 7 17 25 17 41 0 22 10 33 48
57 26 16 69 49 96 74 l48 45 104 0 c99 0 104 1 132 28 16 16 38 28 48 27 34
-4 37 0 20 25 l-16 25 92 69 c79 58 94 66 102 52 5 -9 19 -27 32 -41 33 -36
71 -124 95 -221 24 -94 35 -119 51 -119 6 0 26 -11 44 -25 60 -46 105 -56 207
-45 65 7 99 15 119 30 15 11 41 20 58 20 36 0 38 12 6 37 -18 15 -22 26 -19
50 5 32 32 51 53 38 5 -3 10 0 10 9 0 18 -60 56 -89 56 -12 0 -20 4 -16 10 18
30 -109 52 -168 28 -15 -6 -30 -8 -34 -4 -3 3 -7 32 -9 63 -1 32 -13 85 -25
118 -23 63 -40 230 -39 376 1 86 -22 198 -50 247 -18 30 -19 40 -9 100 11 70
5 206 -12 251 -6 14 -24 48 -41 75 -20 30 -33 64 -34 90 -4 69 -15 99 -51 143
-19 23 -42 66 -52 96 -32 93 -61 137 -145 226 -70 72 -83 91 -83 119 0 44 -34
78 -92 90 -25 6 -82 18 -126 27 -44 8 -100 22 -125 30 -60 20 -89 19 -124 -4z
m121 -30 c13 -14 23 -20 23 -13 0 18 21 15 36 -5 8 -11 13 -13 14 -5 0 16 27
15 37 -2 4 -7 22 -20 39 -29 18 -9 46 -29 64 -44 l33 -28 -7 28 c-6 26 -5 27
14 17 12 -6 28 -27 37 -45 10 -20 38 -49 70 -70 30 -20 73 -63 99 -98 63 -86
74 -110 32 -69 -19 17 -39 32 -45 32 -7 0 -20 14 -30 30 -18 31 -40 42 -29 14
3 -8 -2 -27 -11 -41 -17 -25 -16 -25 4 -19 29 9 49 -17 35 -48 -7 -15 -25 -27
-56 -36 -60 -17 -67 -29 -13 -23 28 3 49 0 62 -10 19 -15 19 -16 1 -36 -10
-11 -35 -23 -55 -26 -86 -14 -90 -17 -192 -118 -35 -35 -55 -48 -71 -45 l-23
3 23 20 c13 11 47 43 75 71 29 28 66 56 84 63 17 7 41 23 53 36 l21 23 -38 -7
c-21 -4 -48 -13 -60 -20 -20 -10 -23 -9 -23 5 0 13 -5 11 -25 -10 -13 -14 -29
-26 -34 -26 -6 0 -22 -25 -36 -55 -27 -57 -39 -66 -49 -40 -3 8 -1 15 4 15 6
0 10 5 10 11 0 5 -4 8 -9 5 -5 -4 -20 -2 -33 3 -22 9 -21 10 8 10 40 1 82 34
101 79 12 29 12 36 1 43 -9 6 -18 -2 -30 -25 -19 -36 -48 -51 -121 -61 -26 -3
-45 -10 -42 -16 4 -5 0 -9 -7 -9 -19 1 -95 36 -102 49 -9 14 0 14 25 1 15 -9
19 -7 19 5 0 9 -5 25 -11 36 -10 19 -12 19 -28 5 -10 -9 -25 -14 -34 -10 -14
5 -15 10 -4 37 9 22 11 50 5 96 -7 55 -14 71 -38 94 -27 24 -28 27 -10 27 29
0 48 45 32 71 -11 17 -10 20 4 17 9 -2 19 3 21 9 3 10 -2 11 -19 4 -18 -6 -23
-16 -23 -41 0 -22 -6 -36 -20 -44 -11 -6 -23 -15 -26 -19 -16 -23 -67 35 -79
89 -11 47 3 65 40 51 41 -16 47 -3 21 44 -28 49 -18 62 39 54 58 -8 94 -9 118
-1 18 6 22 4 22 -13 0 -12 5 -21 10 -21 15 0 12 -21 -7 -42 -15 -17 -15 -18 0
-13 22 9 31 40 18 64 -29 52 44 71 86 22z m-317 -19 c0 -10 7 -28 16 -40 8
-12 10 -22 5 -22 -6 0 -11 5 -11 10 0 6 -6 10 -14 10 -17 0 -28 24 -20 45 8
21 24 19 24 -3z m497 -28 c-7 -7 -37 7 -37 17 0 6 9 5 21 -1 11 -7 19 -14 16
-16z m118 -35 c4 -6 5 -13 2 -15 -5 -6 -47 31 -47 41 0 8 38 -13 45 -26z m-75
11 c0 -5 -2 -10 -4 -10 -3 0 -8 5 -11 10 -3 6 -1 10 4 10 6 0 11 -4 11 -10z
m-468 -272 c-17 -17 -15 -33 3 -18 16 13 20 3 9 -24 -5 -12 -10 -13 -30 -4
-13 6 -24 15 -24 20 0 4 -7 8 -15 8 -8 0 -15 5 -15 11 0 7 10 9 24 5 14 -3 28
-2 31 4 3 5 11 10 18 10 8 0 8 -3 -1 -12z m731 -38 c19 -16 37 -26 41 -23 4 4
4 -1 0 -11 -5 -13 -4 -17 4 -12 7 4 13 -7 18 -31 7 -41 34 -104 60 -140 12
-16 13 -23 4 -23 -9 0 -8 -7 4 -25 22 -33 20 -37 -9 -23 -14 6 -25 14 -25 18
0 12 -36 55 -88 107 -31 31 -48 54 -42 58 6 4 36 -18 66 -48 30 -29 54 -48 54
-40 0 8 -29 44 -65 81 -66 67 -81 91 -45 72 29 -15 25 5 -5 24 -24 16 -34 46
-15 46 5 0 25 -13 43 -30z m-793 -27 c0 -7 -7 -13 -15 -13 -15 0 -21 31 -8 43
8 8 23 -12 23 -30z m-56 -4 c6 -12 33 -29 66 -40 30 -10 61 -21 69 -24 20 -8
-33 -35 -68 -35 -32 0 -78 54 -88 102 -6 34 2 33 21 -3z m146 -14 c-7 -8 -20
-15 -29 -15 -11 1 -8 5 9 15 32 18 35 18 20 0z m385 -135 c-20 -22 -31 -20
-22 5 4 8 14 15 23 15 16 0 16 -2 -1 -20z m289 6 c15 -1 32 -10 38 -19 16 -29
91 -112 99 -110 12 4 74 -77 103 -134 29 -59 34 -89 9 -58 l-16 20 8 -20 c4
-11 9 -40 11 -65 4 -43 3 -44 -6 -12 -6 17 -13 32 -15 32 -9 0 6 -83 21 -127
12 -32 13 -54 6 -95 -8 -41 -7 -57 4 -72 16 -23 19 -113 4 -150 -6 -17 -6 -26
0 -26 6 0 15 20 22 44 13 51 23 51 32 2 7 -35 -9 -83 -47 -138 -23 -35 -9 -36
27 -3 15 14 29 25 31 25 8 0 -3 -98 -14 -118 -12 -22 -11 -23 10 -17 22 7 22
6 16 -56 -5 -54 -1 -79 24 -159 31 -94 34 -154 13 -204 -6 -16 -4 -18 9 -13
13 5 17 1 17 -14 0 -25 17 -59 31 -59 6 0 6 7 -1 19 -14 27 -13 31 8 31 9 0
26 7 36 15 26 20 53 20 37 1 -10 -11 -4 -13 32 -9 41 5 45 3 75 -35 31 -39 42
-82 22 -82 -5 0 -10 3 -10 8 0 12 -65 52 -87 52 -11 0 -27 -8 -36 -18 -15 -16
-14 -17 21 -14 27 3 45 -2 65 -18 26 -21 27 -24 12 -40 -9 -10 -15 -26 -13
-36 4 -26 -44 -42 -82 -27 -18 7 -32 7 -36 2 -14 -24 -101 -1 -147 39 -9 8
-27 20 -39 26 -18 9 -30 38 -59 141 -20 73 -52 159 -73 196 -39 72 -44 89 -21
89 8 0 29 14 47 31 l33 30 -31 -15 c-29 -14 -74 -12 -74 3 0 4 7 16 15 28 23
32 72 167 95 259 18 70 19 91 10 145 -5 35 -10 97 -10 138 0 41 -7 97 -15 125
-8 28 -20 77 -25 108 -16 81 -43 116 -138 172 -79 47 -82 51 -82 86 0 48 -8
55 -32 25 -11 -14 -27 -25 -36 -25 -8 0 -25 -9 -37 -20 -18 -17 -25 -18 -53
-8 -27 11 -38 9 -77 -10 -51 -25 -87 -30 -40 -6 17 9 50 38 75 65 36 40 53 51
85 55 21 2 48 11 60 19 11 8 29 12 40 9 11 -3 33 -6 49 -8z m-201 -160 c10 -8
28 -12 40 -9 21 4 22 4 3 -11 -23 -19 -58 -19 -106 -1 -34 12 -34 14 10 28 24
9 34 7 53 -7z m259 -80 c40 -26 107 -123 108 -154 0 -13 7 -37 16 -54 9 -16
18 -56 20 -87 5 -55 4 -54 -24 39 -27 89 -48 140 -57 140 -2 0 1 -16 6 -35 6
-20 9 -43 7 -53 -1 -9 1 -22 5 -29 4 -6 11 -49 16 -95 5 -45 16 -99 24 -118
19 -45 31 -130 19 -130 -5 0 -12 19 -16 41 -4 23 -18 65 -31 94 -14 28 -29 75
-35 103 -18 99 -55 141 -175 199 -71 34 -83 47 -84 96 -1 36 24 45 52 20 12
-11 34 -27 49 -36 15 -9 50 -44 78 -78 56 -68 62 -63 23 19 -31 66 -91 135
-133 152 -16 7 -27 16 -25 20 7 11 116 -26 157 -54z m-333 20 c22 -12 20 -13
-32 -19 -62 -6 -101 -24 -152 -69 -20 -17 -38 -28 -40 -26 -10 9 38 59 88 93
55 37 95 43 136 21z m56 -80 c38 -1 41 -3 70 -61 24 -48 45 -71 105 -116 93
-70 110 -97 110 -170 0 -40 8 -74 26 -114 25 -55 26 -64 20 -159 -4 -56 -9
-117 -12 -136 l-5 -35 22 25 22 25 -8 -25 c-4 -14 -20 -47 -36 -75 l-29 -50 7
45 c23 137 -8 422 -59 527 -25 53 -82 103 -167 146 -66 33 -66 33 -69 80 -2
26 -5 47 -8 47 -3 0 -17 -14 -31 -30 -39 -47 -79 -63 -160 -64 -57 -1 -78 -6
-102 -24 -17 -12 -33 -22 -36 -22 -15 0 39 81 80 119 66 60 119 83 175 75 25
-3 63 -7 85 -8z m-95 -192 c0 -14 1 -14 16 0 19 20 33 20 40 1 3 -8 38 -24 76
-36 39 -11 81 -31 94 -44 13 -13 32 -55 44 -96 11 -41 31 -110 45 -154 13 -44
29 -111 36 -149 22 -128 -10 -284 -68 -337 -23 -21 -25 -22 -19 -4 15 40 46
242 46 295 -1 75 -15 132 -55 216 -38 79 -117 174 -145 174 -10 0 -41 25 -69
56 -44 48 -53 54 -71 44 -15 -8 -32 -7 -68 5 -31 11 -64 15 -97 11 -49 -5 -50
-5 -20 9 22 11 50 13 106 9 52 -4 79 -3 83 5 10 16 26 13 26 -5z m-98 -74 c29
-11 64 -20 78 -20 36 0 70 -27 87 -69 8 -19 28 -55 45 -78 49 -72 68 -123 68
-187 0 -33 8 -118 17 -189 14 -104 15 -141 6 -194 -7 -36 -18 -70 -25 -74 -7
-4 -13 -7 -15 -6 -1 2 5 30 13 62 26 99 16 220 -28 330 -20 50 -39 109 -43
132 -8 50 -47 107 -104 152 -34 27 -41 39 -41 67 0 38 -4 40 -50 20 -30 -12
-38 -11 -78 6 -45 20 -138 27 -183 13 -45 -14 -5 12 51 33 70 27 136 27 202 2z
m424 -126 c4 -21 13 -53 21 -71 7 -18 13 -52 12 -75 l0 -43 -20 65 c-22 72
-34 118 -43 170 -6 33 -5 34 8 14 8 -11 18 -38 22 -60z m94 34 c50 -88 54
-103 54 -193 1 -66 -4 -99 -16 -125 l-17 -35 7 50 c14 95 8 157 -20 220 -25
56 -46 136 -32 123 3 -4 14 -21 24 -40z m-656 11 c25 -11 50 -17 56 -14 5 3
14 -3 20 -14 9 -18 6 -21 -22 -26 -18 -4 -62 -2 -98 4 -95 16 -143 13 -200 -9
-27 -11 -50 -18 -50 -16 0 9 97 74 125 84 49 17 119 14 169 -9z m255 -188 c94
-140 115 -214 108 -376 -3 -74 -10 -124 -22 -153 -17 -42 -27 -49 -85 -67
l-25 -7 27 28 c38 40 67 112 74 181 5 46 2 70 -16 118 -12 33 -26 83 -29 110
-9 64 -20 84 -77 133 -42 38 -74 101 -74 148 0 35 52 -16 119 -115z m204 24
c48 -97 67 -167 67 -247 0 -66 -23 -148 -41 -148 -5 0 -9 42 -9 93 0 50 -5
110 -10 132 -5 22 -11 67 -15 100 -3 33 -17 81 -30 107 -14 26 -25 51 -25 55
0 18 32 -28 63 -92z m-495 59 c34 -11 52 -12 84 -4 22 6 42 9 45 6 3 -3 16
-30 28 -60 12 -29 38 -73 57 -97 56 -70 63 -99 63 -249 0 -151 -13 -208 -67
-293 -39 -61 -46 -55 -14 10 37 74 56 157 56 249 0 115 -26 192 -91 273 -40
49 -53 75 -57 108 -4 37 -7 41 -23 33 -27 -15 -122 -12 -162 5 -20 8 -52 15
-72 15 -47 0 -45 18 3 23 47 5 96 -1 150 -19z m-1633 -106 c5 -21 2 -35 -9
-46 -14 -15 -20 -14 -61 6 -25 12 -45 25 -45 30 0 4 14 13 31 19 17 7 33 21
36 33 5 19 7 20 24 4 10 -9 21 -30 24 -46z m1580 46 l103 -16 6 -41 c4 -22 25
-85 48 -140 l41 -100 -6 -136 c-6 -152 -23 -222 -69 -288 -40 -59 -55 -55 -17
5 39 61 69 160 69 228 0 82 -17 145 -67 241 -41 81 -45 92 -40 141 5 43 3 53
-8 48 -43 -16 -97 -17 -198 -1 -102 16 -117 17 -165 3 -28 -9 -52 -15 -52 -13
0 9 86 56 126 69 64 19 104 19 229 0z m-95 -113 c54 -5 65 -9 62 -23 -3 -21 2
-22 28 -8 16 9 20 4 29 -41 6 -28 16 -59 21 -70 8 -13 6 -44 -4 -104 -10 -58
-12 -94 -5 -117 15 -55 10 -143 -12 -203 -22 -58 -32 -66 -48 -37 -7 14 -3 40
15 96 29 91 32 203 8 286 -9 30 -19 74 -23 98 -5 24 -18 53 -30 65 -19 20 -33
22 -134 23 -62 1 -134 2 -162 3 l-50 3 40 19 c42 20 133 23 265 10z m346 -98
c26 -52 27 -59 21 -171 -7 -124 -25 -205 -56 -243 -18 -22 -18 -21 1 51 13 52
19 114 21 200 1 108 -2 133 -21 180 -26 65 -26 66 -7 50 8 -7 27 -37 41 -67z
m-506 11 c52 -15 105 -35 116 -46 52 -47 80 -282 41 -341 -10 -15 -23 -24 -31
-21 -12 4 -11 10 2 36 28 57 27 117 -4 209 -25 72 -29 79 -32 52 -2 -17 6 -62
17 -99 24 -75 18 -123 -20 -166 -18 -20 -20 -21 -14 -3 18 50 16 102 -4 155
-23 60 -26 98 -12 148 9 31 9 32 -20 32 -16 0 -64 13 -107 29 -42 16 -84 31
-92 34 -8 3 3 6 25 6 22 1 83 -11 135 -25z m-1351 -34 c12 0 35 7 51 15 28 15
30 14 30 -4 0 -27 -56 -71 -89 -71 -37 0 -61 27 -54 63 5 26 7 27 23 12 9 -8
27 -15 39 -15z m1196 16 c58 -15 106 -38 124 -60 14 -17 39 -97 54 -177 8 -43
7 -65 -4 -99 -13 -41 -18 -46 -65 -60 l-51 -15 20 -27 c11 -15 22 -49 25 -78
4 -42 1 -57 -17 -81 -12 -16 -24 -43 -28 -60 -3 -16 -19 -43 -35 -60 -22 -21
-25 -29 -13 -29 64 0 138 112 137 206 -1 28 -6 63 -11 78 -10 25 -9 26 9 16
23 -12 50 -60 50 -89 0 -11 -5 -42 -11 -70 -9 -44 -18 -57 -76 -105 -46 -40
-73 -56 -93 -56 -16 0 -41 -5 -56 -12 -26 -12 -25 -12 26 -24 61 -14 102 -5
168 33 109 62 158 134 148 216 -3 27 -12 60 -21 73 -8 13 -11 24 -5 24 37 0
63 -159 37 -222 -15 -36 -67 -78 -95 -78 -8 0 -34 -22 -59 -50 -25 -27 -51
-50 -58 -50 -8 0 -17 -5 -21 -11 -4 -8 4 -9 27 -4 49 11 100 39 133 74 17 17
35 31 42 31 20 0 52 48 71 106 16 53 16 56 -4 104 -23 54 -18 63 14 28 28 -31
43 -62 43 -90 0 -18 -2 -20 -10 -8 -7 11 -11 4 -16 -28 -4 -24 -17 -59 -30
-78 -13 -19 -20 -34 -15 -34 4 0 2 -23 -5 -52 -13 -48 -55 -108 -77 -108 -6 0
-25 -18 -44 -40 -23 -27 -49 -44 -81 -54 -26 -8 -60 -21 -77 -30 -16 -9 -49
-16 -72 -16 -24 0 -43 -4 -43 -10 0 -31 214 16 269 59 18 14 50 35 69 46 22
12 44 36 56 62 15 31 27 42 44 43 13 0 35 9 51 21 46 34 80 23 109 -33 14 -27
22 -55 18 -64 -6 -15 -10 -14 -34 9 -43 41 -77 50 -114 29 -17 -9 -42 -24 -57
-32 -46 -25 5 -25 53 1 l43 22 37 -22 c37 -23 44 -35 26 -46 -5 -3 -10 -17
-10 -31 0 -36 -38 -50 -100 -38 -27 6 -47 7 -44 2 3 -4 -8 -8 -23 -8 -16 0
-51 -14 -79 -32 -55 -35 -150 -68 -196 -68 -19 0 -53 -15 -90 -40 -72 -48
-116 -52 -153 -16 -31 31 -27 88 9 125 15 16 26 39 26 54 0 27 0 27 25 11 20
-13 24 -22 19 -43 -4 -14 -13 -34 -21 -43 -12 -14 -12 -20 -2 -40 l13 -23 6
30 c14 69 32 94 70 97 l35 3 -41 13 c-57 17 -73 37 -42 53 13 7 26 16 29 21 4
6 28 6 63 -2 61 -12 131 -3 185 24 39 21 111 102 111 126 0 28 -10 25 -64 -17
-46 -36 -50 -56 -7 -33 40 21 12 -16 -30 -39 -49 -28 -141 -38 -204 -22 -37 9
-50 9 -75 -4 -43 -22 -129 -37 -149 -25 -13 8 -11 9 10 10 14 0 43 11 63 25
22 15 52 25 74 25 l37 1 -30 14 c-29 13 -27 13 45 15 98 2 134 15 65 23 -28 3
-72 9 -98 13 -40 6 -53 3 -76 -14 -23 -17 -32 -18 -51 -9 -30 15 -37 37 -13
37 11 0 28 7 39 15 10 8 28 15 40 15 11 0 29 7 40 15 18 13 16 14 -24 15 -23
0 -53 -6 -65 -14 -12 -8 -33 -16 -47 -18 -19 -2 -26 2 -28 19 -2 12 -10 27
-18 33 -12 10 -7 20 30 61 38 42 45 56 48 99 4 59 -9 67 -18 11 -16 -97 -177
-192 -255 -151 -27 15 -24 32 5 24 14 -3 32 -1 42 4 15 9 15 10 -7 16 -50 14
-69 29 -69 53 0 18 8 27 30 35 17 5 35 18 40 28 14 26 12 33 -5 26 -18 -6 -18
-3 -4 47 12 45 7 66 -26 101 -29 32 -65 33 -114 5 l-36 -21 40 37 c34 32 37
36 15 30 -14 -4 -40 -16 -57 -27 -45 -27 -42 -15 4 17 24 16 52 25 75 25 20 0
39 4 42 9 9 14 -58 23 -88 11 -14 -5 -26 -6 -26 -1 0 25 70 46 155 46 l60 0
-3 -42 c-3 -35 2 -49 27 -80 17 -21 37 -54 45 -75 9 -20 23 -43 32 -52 19 -19
21 -43 10 -103 -9 -47 3 -57 23 -20 19 36 18 195 -2 239 -18 40 -59 74 -77 63
-7 -4 4 -23 30 -51 30 -33 40 -52 40 -76 l-1 -33 -15 34 c-8 19 -33 51 -55 72
l-40 37 15 37 c9 21 16 46 16 57 0 18 -6 19 -55 16 -52 -3 -62 5 -20 15 14 3
11 5 -10 6 -16 0 -47 -4 -68 -10 -54 -15 -57 -4 -5 22 33 18 65 24 139 27 l96
4 23 -38 c12 -22 32 -55 42 -74 11 -19 28 -44 39 -56 10 -11 28 -38 39 -60 17
-34 19 -36 20 -14 0 46 -20 96 -54 136 -19 22 -39 59 -45 82 -10 35 -16 42
-44 47 -54 9 -120 10 -162 2 -37 -7 -39 -6 -20 8 50 40 145 43 228 9 36 -15
47 -25 51 -48 3 -16 22 -46 41 -67 33 -37 35 -43 35 -111 0 -47 5 -77 14 -87
16 -18 25 -172 12 -206 -7 -17 -5 -17 13 3 48 55 51 167 5 221 -23 27 -24 35
-18 96 7 65 6 67 -25 99 -22 23 -34 47 -38 75 -6 40 -6 41 -45 41 -25 0 -50 8
-65 20 -14 11 -42 21 -62 21 -34 1 -33 2 14 12 35 7 62 7 92 -1 28 -8 51 -9
67 -2 27 10 88 -9 102 -31 5 -8 1 -8 -14 0 -26 14 -166 15 -157 1 3 -5 25 -10
48 -10 65 0 116 -35 155 -105 30 -55 32 -66 29 -131 l-4 -70 49 9 c63 13 72
29 63 118 -7 70 -56 192 -86 214 -20 15 -109 38 -139 37 -44 -3 -111 9 -105
19 9 13 112 11 170 -5z m365 -50 c6 -18 10 -56 10 -82 -1 -27 1 -80 4 -119 7
-91 -10 -44 -24 65 -5 41 -12 96 -16 123 -8 56 9 65 26 13z m-1580 -69 c-15
-16 -55 -3 -58 20 -3 21 -3 21 32 5 19 -10 31 -21 26 -25z m2013 -82 c1 -48
-4 -80 -16 -102 -26 -48 -38 -49 -21 -1 9 27 15 78 15 133 0 72 2 85 11 65 6
-14 11 -56 11 -95z m-2062 59 c10 -12 25 -15 61 -12 26 3 48 2 48 -3 0 -4 -12
-21 -26 -38 -33 -39 -80 -42 -113 -7 -19 20 -20 27 -10 50 14 30 21 32 40 10z
m1360 -55 c15 -14 31 -38 35 -53 8 -34 -3 -91 -21 -106 -12 -10 -13 -3 -8 42
4 47 2 58 -26 98 -17 25 -31 54 -31 65 l1 20 11 -20 c6 -11 24 -32 39 -46z
m454 -72 c9 -68 -11 -143 -57 -211 -41 -63 -47 -46 -12 41 21 52 27 81 24 123
-6 97 -5 144 4 165 8 17 10 14 22 -22 7 -23 15 -66 19 -96z m-1857 -27 c12 0
6 -11 -20 -35 -22 -20 -47 -35 -60 -34 -22 1 -22 1 2 9 14 4 20 8 13 9 -19 2
-43 31 -43 52 0 10 9 28 20 39 l21 21 25 -31 c14 -16 33 -30 42 -30z m42 26
c-6 -6 -19 -5 -35 2 -37 17 -30 31 10 18 21 -7 31 -14 25 -20z m-178 -60 c1
-25 8 -42 21 -51 20 -14 20 -15 3 -34 -11 -12 -25 -17 -34 -14 -57 20 -69 78
-25 119 14 13 28 23 30 21 2 -3 4 -21 5 -41z m955 -54 c14 -9 33 -56 33 -80 0
-11 -7 -5 -20 16 -25 40 -46 43 -25 2 19 -37 19 -71 0 -96 -13 -18 -14 -16
-15 27 0 53 -27 85 -75 91 l-30 3 40 22 c42 23 72 28 92 15z m-167 -9 c-1 -12
-60 -79 -60 -68 0 17 39 75 50 75 5 0 10 -3 10 -7z m-802 -49 c20 -6 4 -24
-22 -24 -22 0 -46 17 -46 32 0 7 31 4 68 -8z m1718 -45 c19 -39 17 -116 -5
-165 -14 -32 -28 -45 -61 -58 -50 -20 -65 -14 -21 8 70 37 85 119 44 251 -5
18 -4 18 11 6 10 -8 24 -27 32 -42z m-1782 -9 c15 -5 32 -7 38 -4 6 4 8 -1 6
-12 -5 -28 -61 -41 -92 -20 -15 9 -23 22 -21 31 17 53 15 51 29 33 7 -10 25
-22 40 -28z m936 30 c10 -5 24 -26 31 -47 11 -34 10 -38 -11 -55 l-24 -19 -13
34 c-14 33 -47 57 -80 57 -14 0 -14 2 2 20 19 22 65 26 95 10z m-76 -91 c33
-26 33 -56 0 -93 -14 -15 -26 -27 -27 -25 -2 2 -8 17 -15 32 -7 15 -26 34 -42
41 -26 10 -28 15 -17 29 10 14 49 34 68 36 4 1 18 -8 33 -20z m-160 -41 c-21
-29 -47 -65 -58 -80 -29 -41 -31 -26 -2 30 21 42 76 102 93 102 2 0 -12 -24
-33 -52z m-727 22 c13 0 23 -4 23 -10 0 -5 -9 -10 -21 -10 -29 0 -61 19 -53
31 4 7 10 7 17 0 6 -6 21 -11 34 -11z m63 -70 c0 -46 -34 -90 -69 -90 -30 0
-34 17 -6 24 37 9 31 31 -7 31 -30 0 -33 3 -36 34 -3 33 -3 34 30 29 18 -3 42
-2 53 3 33 13 35 11 35 -31z m747 15 c22 -16 36 -52 23 -60 -5 -3 -12 4 -15
15 -4 12 -17 26 -31 32 -13 6 -21 15 -18 19 7 13 16 11 41 -6z m-23 -57 c24
-34 20 -56 -24 -110 l-40 -51 0 36 c0 39 -27 67 -64 67 -18 0 -19 1 -1 20 13
14 31 20 62 20 46 0 50 14 9 30 -18 8 -17 9 11 9 22 1 37 -6 47 -21z m445
-114 c-16 -17 -33 -24 -60 -24 -32 0 -41 5 -58 34 -27 43 -27 47 7 40 19 -4
42 1 68 15 l39 21 13 -31 c12 -29 11 -34 -9 -55z m-1159 51 c0 -22 -45 -48
-70 -40 -24 7 -17 25 9 25 10 0 24 7 31 15 16 19 30 19 30 0z m620 -25 c25
-25 26 -45 3 -35 -10 4 -31 12 -46 17 -22 8 -25 13 -16 24 16 19 36 17 59 -6z
m265 0 c11 -17 -7 -81 -28 -101 -22 -20 -42 -26 -32 -9 4 6 3 25 -1 43 l-7 32
-12 -34 c-14 -43 -34 -53 -27 -14 6 35 -9 22 -23 -19 -13 -40 -51 -68 -103
-75 -23 -3 -42 -10 -42 -14 0 -17 -74 -90 -114 -114 -23 -13 -61 -29 -86 -35
-36 -9 -53 -22 -83 -61 -24 -30 -59 -60 -88 -75 -27 -13 -49 -29 -49 -34 0 -5
-18 -47 -40 -94 -41 -85 -54 -141 -26 -103 11 14 16 15 23 5 5 -9 10 0 13 26
3 21 13 44 22 50 21 13 36 0 20 -16 -7 -7 -12 -17 -12 -22 0 -6 5 -5 12 2 32
32 98 -7 98 -58 0 -18 -12 -35 -42 -59 l-43 -32 -127 3 c-118 3 -128 5 -152
27 -29 27 -41 75 -32 124 6 30 9 33 36 29 16 -2 38 -1 47 3 15 7 13 9 -11 14
-69 14 -59 71 30 158 35 34 64 67 64 71 0 5 11 20 23 34 21 23 32 26 103 26
133 1 279 55 389 142 28 22 60 44 72 49 12 6 50 34 85 64 90 76 127 93 143 67z
m55 -8 l22 -18 -26 -12 c-21 -9 -26 -9 -26 2 0 8 -3 21 -6 30 -8 21 9 20 36
-2z m970 -23 c-66 -53 -88 -61 -74 -25 8 20 51 45 79 45 18 1 18 -1 -5 -20z
m-1860 -45 c0 -6 -9 -23 -21 -38 -29 -36 -62 -34 -93 7 -33 43 -32 44 3 39 22
-3 36 2 53 20 l23 24 17 -20 c10 -12 18 -26 18 -32z m520 19 c21 -27 24 -64 5
-70 -6 -2 -16 10 -22 27 -6 16 -16 30 -22 30 -6 0 -7 -8 -3 -21 12 -32 2 -78
-19 -90 -17 -8 -19 -6 -19 20 0 20 -9 36 -27 51 l-28 22 35 29 c44 36 73 37
100 2z m683 -29 c43 -22 44 -24 27 -34 -22 -14 -102 -11 -123 4 -17 13 -16 15
12 21 17 4 33 11 36 16 8 12 11 12 48 -7z m-791 -60 c9 -18 8 -30 -2 -49 -18
-33 -30 -32 -30 4 0 20 -8 35 -22 46 -18 12 -20 17 -9 24 21 13 52 1 63 -25z
m-362 -8 c0 -28 -18 -46 -45 -46 -35 0 -37 12 -5 31 17 11 30 26 30 34 0 9 5
13 10 10 6 -3 10 -16 10 -29z m295 -41 c8 -23 6 -30 -14 -46 -26 -21 -53 -27
-33 -7 17 17 15 63 -3 78 -8 7 -12 17 -9 22 9 15 48 -16 59 -47z m-236 21 c17
-18 22 -33 19 -62 -4 -48 -20 -53 -85 -24 l-48 21 33 14 c23 10 34 23 38 45 8
36 14 37 43 6z m177 -30 c6 -25 -10 -66 -26 -66 -4 0 -16 -3 -25 -7 -15 -5
-16 -3 -6 15 12 23 1 64 -21 78 -19 12 32 23 54 12 10 -5 20 -19 24 -32z
m1059 24 c-3 -5 -23 -9 -43 -9 l-37 2 35 7 c52 11 52 11 45 0z m-1148 -27 c12
-16 7 -43 -8 -43 -5 0 -9 5 -9 12 0 6 -10 23 -22 36 l-23 24 25 -7 c14 -4 30
-14 37 -22z"/>
<path d="M2216 3295 c4 -8 8 -15 10 -15 2 0 4 7 4 15 0 8 -4 15 -10 15 -5 0
-7 -7 -4 -15z"/>
<path d="M2180 3284 c0 -8 5 -12 10 -9 6 4 8 11 5 16 -9 14 -15 11 -15 -7z"/>
<path d="M1981 3276 c12 -10 60 -16 54 -6 -3 5 -18 10 -32 10 -15 0 -24 -2
-22 -4z"/>
<path d="M2060 3273 c0 -7 5 -15 10 -18 6 -3 11 -16 11 -28 1 -17 2 -18 6 -5
2 10 -3 28 -11 40 -9 12 -16 17 -16 11z"/>
<path d="M2111 3275 c0 -5 6 -19 14 -29 8 -11 15 -15 15 -10 0 6 -7 19 -15 30
-8 10 -14 15 -14 9z"/>
<path d="M2194 3241 c0 -11 6 -17 13 -14 6 3 9 11 6 19 -7 20 -19 17 -19 -5z"/>
<path d="M2098 3221 c-4 -28 -3 -30 10 -18 10 11 11 20 4 32 -8 15 -10 13 -14
-14z"/>
<path d="M2246 3239 c4 -8 11 -35 14 -61 6 -42 4 -48 -11 -48 -10 0 -24 10
-30 23 -7 12 -17 25 -23 29 -7 5 -4 8 7 8 11 0 21 -9 24 -20 3 -11 9 -20 13
-20 5 0 3 13 -3 29 -10 26 -14 29 -46 24 -43 -6 -94 -28 -108 -45 -6 -7 -13
-26 -17 -41 -8 -34 13 -34 29 1 10 24 39 34 53 20 5 -5 27 -16 48 -24 l39 -15
-34 6 c-19 3 -44 13 -55 22 -20 16 -20 16 0 -6 15 -16 37 -25 70 -28 36 -4 57
-13 80 -35 l31 -29 5 25 c6 31 2 36 -30 36 -21 0 -23 3 -17 23 16 49 -3 125
-34 135 -10 3 -11 0 -5 -9z m-36 -99 c0 -5 -5 -10 -11 -10 -5 0 -7 5 -4 10 3
6 8 10 11 10 2 0 4 -4 4 -10z"/>
<path d="M2336 3215 c12 -19 15 -37 10 -72 l-6 -46 21 19 c15 14 19 26 15 48
-7 35 -32 76 -46 76 -6 0 -3 -11 6 -25z"/>
<path d="M2380 3206 c0 -8 4 -25 9 -38 6 -16 4 -37 -4 -61 -7 -21 -16 -53 -19
-72 -6 -30 -5 -34 11 -28 15 5 16 3 6 -8 -7 -7 -13 -20 -13 -28 0 -11 5 -9 16
7 8 12 13 26 9 31 -3 6 2 16 11 23 64 52 80 92 48 119 -14 11 -16 10 -13 -6 3
-26 -28 -95 -42 -95 -8 0 -8 4 -1 13 20 24 24 82 8 120 -16 38 -26 47 -26 23z"/>
<path d="M1990 3201 c0 -18 30 -33 55 -27 34 9 31 22 -6 30 -42 8 -49 8 -49
-3z"/>
<path d="M1943 3154 c-7 -18 12 -39 44 -49 18 -5 22 -3 17 9 -3 8 -15 16 -27
18 -11 2 -22 8 -24 14 -2 7 6 10 22 7 15 -3 25 -1 25 6 0 17 -50 13 -57 -5z"/>
<path d="M1918 3155 c-9 -9 15 -56 36 -74 8 -7 20 -10 26 -6 7 5 0 14 -18 25
-17 11 -32 28 -34 40 -2 12 -6 19 -10 15z"/>
<path d="M2500 3127 c0 -13 -7 -32 -15 -43 -20 -27 -18 -36 8 -32 17 2 23 11
25 36 2 17 8 32 14 32 6 0 6 6 -2 15 -18 22 -30 18 -30 -8z"/>
<path d="M2096 3093 c-11 -27 8 -34 21 -7 9 19 8 24 -2 24 -7 0 -16 -8 -19
-17z"/>
<path d="M2121 3053 c0 -25 1 -26 9 -8 12 27 12 35 0 35 -5 0 -10 -12 -9 -27z"/>
<path d="M2165 3060 c-18 -20 -11 -25 19 -14 17 6 23 34 8 34 -5 0 -17 -9 -27
-20z"/>
<path d="M2540 3058 c0 -39 -13 -50 -44 -38 -40 15 -67 13 -36 -3 31 -15 40
-57 13 -57 -10 0 -29 7 -41 16 -12 8 -22 11 -22 5 0 -12 47 -50 91 -74 30 -17
32 -20 16 -29 -10 -5 -41 -8 -68 -6 -52 3 -59 -8 -18 -30 38 -20 97 -8 133 28
l31 31 -23 39 c-17 31 -20 44 -12 59 5 11 10 29 10 40 0 15 6 21 21 21 11 0
17 5 14 10 -3 6 -19 10 -36 10 -23 0 -29 -4 -29 -22z m15 -137 c-9 -9 -35 22
-35 43 0 19 2 18 20 -9 10 -16 17 -31 15 -34z"/>
<path d="M2050 3042 c0 -15 11 -43 25 -62 30 -40 33 -24 5 22 -11 18 -20 38
-20 43 0 6 9 -5 21 -24 24 -39 35 -36 17 5 -22 50 -48 59 -48 16z"/>
<path d="M2216 3054 c-3 -9 -6 -24 -6 -35 0 -12 -7 -19 -19 -19 -11 0 -23 -4
-26 -10 -4 -6 6 -10 24 -10 35 0 37 3 46 53 7 37 -7 53 -19 21z"/>
<path d="M2243 2993 c-11 -24 -28 -40 -47 -46 -25 -8 -32 -6 -47 14 -21 28
-23 24 -8 -18 10 -29 12 -30 57 -25 50 5 72 16 72 38 0 7 10 20 23 29 22 16
22 16 3 30 -28 21 -32 19 -53 -22z"/>
<path d="M2130 3010 c0 -5 5 -10 11 -10 5 0 7 5 4 10 -3 6 -8 10 -11 10 -2 0
-4 -4 -4 -10z"/>
<path d="M2319 2973 c-1 -7 -3 -17 -4 -23 -1 -5 -3 -17 -4 -25 -2 -24 -39 -55
-65 -55 -13 0 -38 -13 -55 -29 -26 -25 -28 -29 -13 -33 10 -3 44 -3 75 0 46 4
61 9 77 30 11 13 20 32 20 41 0 23 -28 109 -31 94z"/>
<path d="M2393 2940 c2 -26 9 -38 29 -50 20 -11 30 -12 38 -4 8 8 2 17 -24 33
-19 12 -37 30 -40 39 -2 9 -4 1 -3 -18z"/>
<path d="M2114 2927 c3 -10 6 -28 6 -38 0 -11 5 -17 10 -14 15 9 12 28 -6 51
-14 17 -15 17 -10 1z"/>
<path d="M2082 2883 c2 -41 5 -50 15 -41 17 14 16 29 -2 64 -15 29 -15 29 -13
-23z"/>
<path d="M2136 2864 c-10 -27 3 -30 27 -6 l21 22 -21 0 c-11 0 -24 -7 -27 -16z"/>
<path d="M2157 2773 c22 -17 54 -16 77 0 15 11 10 13 -38 13 -48 -1 -54 -3
-39 -13z"/>
<path d="M2523 2670 c-13 -5 -23 -12 -23 -15 0 -11 67 -4 86 10 18 14 18 14
-11 14 -16 0 -40 -4 -52 -9z"/>
<path d="M2690 2653 c0 -22 52 -73 74 -73 26 0 96 -61 123 -107 20 -35 29 -43
31 -30 10 51 -60 130 -148 168 -28 12 -57 31 -65 43 l-15 20 0 -21z"/>
<path d="M2925 1777 c-14 -34 2 -131 39 -224 20 -51 36 -107 36 -125 0 -25 3
-30 10 -18 14 21 3 80 -32 175 -16 44 -33 109 -37 145 -5 46 -10 60 -16 47z"/>
<path d="M2880 1663 c0 -23 17 -49 26 -41 9 10 -4 58 -16 58 -6 0 -10 -8 -10
-17z"/>
<path d="M2923 1485 c3 -22 16 -76 30 -120 21 -66 26 -74 26 -45 1 44 -34 179
-49 194 -9 8 -11 1 -7 -29z"/>
<path d="M3021 1179 c-1 -23 7 -46 20 -63 26 -33 38 -27 16 7 -9 14 -20 40
-25 58 l-10 34 -1 -36z"/>
<path d="M3154 1146 c-9 -20 -9 -23 2 -19 8 3 14 14 14 24 0 25 -3 24 -16 -5z"/>
<path d="M2305 2401 c-33 -15 -89 -61 -74 -61 29 1 179 64 179 76 0 11 -70 1
-105 -15z"/>
<path d="M1644 1483 c17 -32 26 -64 26 -95 0 -38 3 -46 15 -42 20 8 20 85 1
123 -8 15 -27 36 -41 45 l-26 17 25 -48z"/>
<path d="M1324 1497 c54 -31 76 -64 85 -130 5 -41 18 -72 44 -110 20 -29 37
-62 38 -73 0 -16 2 -16 10 4 9 25 -1 53 -45 126 -13 22 -27 60 -31 85 -13 87
-44 121 -107 121 l-33 0 39 -23z"/>
<path d="M1165 1391 c-17 -7 -15 -10 17 -20 20 -7 43 -22 50 -34 23 -36 40
-149 33 -210 -7 -51 -5 -56 16 -67 20 -11 25 -10 46 14 13 15 23 34 23 43 0
15 -2 15 -18 0 -10 -10 -21 -17 -25 -17 -3 0 -3 30 0 68 4 60 2 72 -21 114
-15 25 -33 52 -41 58 -8 7 -15 23 -15 36 0 26 -24 31 -65 15z"/>
<path d="M1548 1274 c-5 -4 -8 -36 -8 -71 0 -79 -18 -117 -70 -143 -40 -20
-70 -54 -70 -78 0 -10 7 -9 28 5 15 11 47 28 71 38 35 15 48 29 64 64 17 38
18 51 8 100 -6 31 -12 64 -13 74 -2 11 -6 15 -10 11z"/>
<path d="M1682 708 c29 -23 70 -23 97 0 21 17 20 17 -49 17 -68 0 -69 0 -48
-17z"/>
<path d="M1915 703 c-27 -7 -103 -63 -84 -63 7 0 36 11 63 25 27 14 59 25 70
25 17 0 18 2 6 10 -16 10 -23 11 -55 3z"/>
<path d="M1585 580 c-10 -11 -16 -23 -12 -26 10 -10 62 12 62 27 0 22 -29 22
-50 -1z"/>
<path d="M397 575 c-15 -13 -45 -29 -66 -35 -41 -11 -97 -64 -126 -120 -28
-54 -11 -53 25 2 29 43 48 59 102 85 47 23 72 42 83 63 19 36 18 36 -18 5z"/>
<path d="M460 538 c-22 -36 -17 -54 7 -23 26 36 34 55 23 55 -6 0 -19 -14 -30
-32z"/>
<path d="M307 438 c-38 -51 -47 -74 -46 -115 l1 -38 14 44 c8 25 25 66 39 93
29 56 26 62 -8 16z"/>
<path d="M350 228 c0 -15 -4 -30 -10 -33 -13 -8 -13 -25 0 -25 19 0 33 46 21
66 -9 17 -10 16 -11 -8z"/>
<path d="M157 234 c-13 -13 -7 -41 13 -65 23 -28 23 -27 7 29 -7 23 -16 40
-20 36z"/>
</g>
</svg>
