<?xml version="1.0" encoding="utf-8"?>
<!-- Generator: Adobe Illustrator 18.0.0, SVG Export Plug-In . SVG Version: 6.00 Build 0)  -->
<!DOCTYPE svg PUBLIC "-//W3C//DTD SVG 1.1//EN" "http://www.w3.org/Graphics/SVG/1.1/DTD/svg11.dtd">
<svg version="1.1" id="Layer_1" xmlns="http://www.w3.org/2000/svg" xmlns:xlink="http://www.w3.org/1999/xlink" x="0px" y="0px"
	 viewBox="0 0 1400 980" enable-background="new 0 0 1400 980" xml:space="preserve">
<g>
	<linearGradient id="SVGID_1_" gradientUnits="userSpaceOnUse" x1="0" y1="490" x2="1400" y2="490">
		<stop  offset="0" style="stop-color:#FBB040"/>
		<stop  offset="6.349488e-002" style="stop-color:#F78E2D"/>
		<stop  offset="0.1162" style="stop-color:#F47723"/>
		<stop  offset="0.1452" style="stop-color:#F36E21"/>
		<stop  offset="0.3755" style="stop-color:#C84D1B"/>
		<stop  offset="0.5054" style="stop-color:#B54016"/>
		<stop  offset="0.6041" style="stop-color:#C14919"/>
		<stop  offset="0.7939" style="stop-color:#E0601F"/>
		<stop  offset="0.8763" style="stop-color:#F36E21"/>
		<stop  offset="0.9446" style="stop-color:#F6851F"/>
		<stop  offset="1" style="stop-color:#F7941E"/>
	</linearGradient>
	<rect y="-0.2" fill="url(#SVGID_1_)" width="1400" height="980.5"/>
	<g>
		<path fill="#171616" d="M200.8,180.6c23.6-19.5,50.4-35.4,77.1-51.2c41.9-24.9,84.4-50,131.3-65.4c11.4-3.7,24.9-8.7,27.3-19.7
			c-24.7,4.7-49.5,9.4-74.2,14.2c-6.7,1.3-13.6,2.6-19.5,5.7c-9,4.8-15.5,13.4-25.2,16.6c-11.1,3.7-23.5-0.6-35.1,1.1
			c-20.5,3.1-32.5,23-50.9,32.1c-14.9,7.4-33.5,7.3-47.5,16.1c-11.3,7.2-17.8,19.1-25.8,29.3c-8.1,10.3-20.1,19.9-33.7,18.6
			c3.6-12.9,8.5-25.5,14.7-37.5c-10.2-1.8-19.1,7.1-22.9,16c-3.9,8.9-5.3,19-12,26.4c-4.3,4.7-10.3,7.8-15.9,11
			c-8.5,4.9-19.5,11.1-25.6,19c-2.6,3.4-3.6,5.8-7.5,8.4c-3.9,2.6-8.3,4.4-11.3,8.1c-1.7,2.2-2.8,4.8-4.3,7.1
			c-6.3,9.5-20,13.8-22.8,24.9c18.9-10,37.1-21.4,54.3-34.2c2.4-1.8,4.8-3.6,7.7-4.1c0.6,1.8-0.6,3.7-1.7,5.2
			c-11.1,15.4-18,30.9-32.9,43.7c-14.6,12.7-31.2,26.3-33.8,44.7c4.6-0.9,8.9-2.9,13.1-5.1c29.7-15.3,55.3-37.4,73.8-63.7
			c3.4-4.8,6.6-9.8,11.4-13.4c7.8-5.9,18.4-7.3,28-10.2C162.3,216.7,180.9,197.1,200.8,180.6z"/>
		<path fill="#171616" d="M222.8,296.5c5.2-8.8,7.8-18.8,11.8-28.1c10.3-24,30.6-44.3,55.7-55.8c11.2-5.1,23.3-8.5,34.1-14.4
			c15.3-8.2,27.2-20.8,41.8-30.1c18.6-11.9,40.7-17.9,61.7-25.5c19.8-7.2,38.9-15.9,57-26.1c7.6-4.2,15.7-9.6,17.5-17.6
			c-37.6,9.7-75.1,19.4-112.7,29c-8.5,2.2-17.2,4.5-24.5,9c-8.1,5-14,12.4-20.9,18.8c-14.9,13.8-34.1,22.6-52.6,31.9
			c-37.5,18.8-73.3,40.4-109,62c-10.8,6.5-22.5,14.4-24.2,26.2c9.3-1.6,17.8-7,22.6-14.5c1.4,5.6-2.5,11-6.3,15.5
			c-15.9,19.5-31.7,39-47.6,58.6c-5.3,6.5-10.7,13.2-12.8,21.1c-1.9,6.8-1.2,14-3.2,20.7c-2.6,8.8-9.5,15.8-15.1,23.3
			c-12.2,16.3-18.7,36.2-18.5,56c7.6,2.5,16.1-1.9,20.7-8c4.6-6.1,6.4-13.6,8.8-20.7c15.7-45.2,59.8-75.6,96.1-109.2
			C210.8,311.9,217.9,304.8,222.8,296.5z"/>
		<path fill="#171616" d="M492.2,186.9c-0.7,0.2-1.3,0.3-2,0.4c9.1-3.8,17.5-12.1,26.8-14.3c46.4-11,93.1-22,140.8-25.6
			c14.1-1.1,29.1-1.9,42.3-6c13.2,4.1,28.2,4.9,42.3,6C790,151,836.7,162,883.1,173c12.2,2.9,27.8,11.5,22.7,22.1
			c-4.9-1.2-10.3-0.8-15,1.1c26.1,20,56.2,35.6,88.3,45.7c-2.3-6.9-4.7-13.8-7-20.8c47.2,21.1,93.6,44.1,135.8,72.9
			c43.4,29.6,81.7,65,119.8,100.2c-16.7-25.2-33.5-50.5-50.2-75.7c-8.6-13-17.3-26.1-29.4-36.5c-7.3-6.3-15.6-11.4-23.8-16.5
			c-23.5-14.5-47-28.9-70.6-43.4c-33.6-20.7-67.2-41.4-103.1-58.4c-31.9-15.1-65.5-27.2-100.4-34.5c8.1,3.7,14.8,10.1,18.4,17.7
			c-26.2-8.1-52.8-10.8-79.2-16.9c-25.4-5.8-50.7-14.7-76.5-19c-7.3-1.8-14.8-3.5-22.2-2.4c-7.5,1.1-14.2,5.1-21.2,7.9
			c-22.4,9.1-47.7,7.1-71.3,12.2c-29.7,6.4-58,24.3-88.1,20c22-10.6,44-21.2,66-31.8c-36.1,4.7-69.8,20.3-102.8,35.6
			c-21.6,10-43.2,20.1-64.8,30.1c-11.4,5.3-22.8,10.6-33.6,17c-10.4,6.2-18.3,13.9-27.3,21.5c-10.3,8.8-24.5,15.1-36.1,22.3
			c-12,7.4-23.9,14.7-35.9,22.1c-15.5,9.5-30.4,23.8-40.4,39.4c-1.9,2.9-3.4,6.1-5.5,8.8c-3.1,4-7.3,7.1-11.8,9.4
			c-1.9,1-3.9,1.9-5.5,3.3c-3.3,2.9-4.2,7.6-5.9,11.6c-2.6,6.2-7,11.3-11.4,16.3c-11.5,13.1-22.9,26.3-34.4,39.4
			c14.5-3.9,28.3-11.4,38.2-22.8c3.4-3.9,6.4-8.3,10.9-10.9c2.3-1.3,4.9-2.1,7.3-3.3c6.8-3.2,11.4-9,15.4-15.1
			c4-6,7.1-8.4,12.8-12.5c15.9-11.3,30.6-24.2,46.7-35.2c42.1-28.8,88.6-51.8,135.8-72.9c-3.2,9.4-6,16.6-14.4,22.5
			c-9.5,6.6-18.9,13.2-28.4,19.8c5,1.2,10.2-0.6,15-2.4c4.8-1.8,9.7-3.6,14.1-6.2c8.9-5.2,15.8-13.1,24.6-18.4
			c9.7-5.8,20.7-9.5,30.6-14.7c14.9-7.8,28.1-17.8,42.4-26.3c14.4-8.5,28.9-17,43.3-25.5c-7.6,2-15.1,4.1-22.7,6.1
			c-4.6,1.2-9.2,2.5-13.9,2.8c-2.5,0.2-5,0.1-7.5,0.5C504.3,180.6,498.6,185.1,492.2,186.9z"/>
		<path fill="#171616" d="M64,616c14.7-28.1,40-50.3,61.3-74c31.4-34.9,71.8-61.9,105.4-95.1c8.3-8.2,16.3-17,21.2-27.2
			c4.4-9.3,6.2-19.5,10.4-28.8c9.4-20.9,32.7-40.5,54.1-48.1c5.1-1.8,10.5-2.9,15.7-4.7c17.9-6.6,30.8-22.4,47.4-31.8
			c8-4.5,16.7-7.5,24.9-11.7c22.8-11.6,39.8-31.8,56.2-51.4c-18.7,10.1-37.4,20.2-56,30.3c-11.7,6.3-23.5,12.7-36.2,16.4
			c-12.1,3.5-24.8,4.6-36.3,9.6c-7,3-13.3,7.4-19.6,11.6c-17.8,11.8-36.6,22.2-56,31.1c-10.6,4.9-21.7,9.5-29.9,17.9
			c-8.4,8.6-12.8,20.3-20.7,29.3c-10.2,11.6-25.1,17.9-36.6,28.1c-10.9,9.6-18.3,22.4-25.6,35c10.4-7.7,20.8-15.5,31.2-23.2
			c11.1-8.2,22.3-16.6,35.1-21.6c-2.1,9.7-13,14.1-20.7,20.4c-6.7,5.5-11.2,13.2-16.6,19.9c-7.7,9.5-17.8,12.4-27.4,19
			c-10.5,7.2-21.2,14.6-29.4,24.5c-15.8,19.2-25.6,48-38.4,70c-4.5,7.8-9.1,15.5-14.2,22.9c-5,7.2-10.4,14.1-15.9,21
			C31.6,625.2,15.8,645.1,0,665v20c6.4-5.8,12.9-11.7,19.3-17.5C36.1,652.2,53.3,636.5,64,616z"/>
		<path fill="#171616" d="M341.9,108.5c-18.9,12.9-34.7,29.4-53.8,42.1c-26.6,17.8-60.8,29.7-75.4,56.9c20-3.4,36.4-16.1,52.3-27.8
			c44.7-32.7,93.3-60.8,144.7-83.6c8.7-3.9,23.4-4.7,23.9,4.3c30.3-5.2,52.6-31.4,82.9-36.6c15.4-2.6,31.3,0.5,46.8-1.4
			c13-1.6,24.3-7.8,36.1-13.2c6.6-3.1,13.1-6.6,19.2-10.6c3.9-2.5,10.2-9.7,14.4-10.7c-18.3,4.3-37.1,6.3-55.9,6.2
			c9.3-7.6,18.5-15.2,27.8-22.8c-14.1,6.8-28.4,13.6-43.9,15.7c-12.3,1.6-25.1,0.2-36.9,4c-5.8,1.9-11.1,5-16.5,7.9
			c-39.3,21.5-81.8,29.5-122.5,47C370,92.2,355.2,99.4,341.9,108.5z"/>
		<path fill="#171616" d="M317.2,547.5c-29.8,20.6-52,50.4-62.3,83.4c29.2-25,57.3-51.3,84.2-78.8c13.5-13.8,26.8-27.9,39.6-42.3
			c6.4-7.2,13.1-14.2,19.1-21.8c4.6-5.9,8.9-7.7,14.9-11.9c5-3.5,7-9.8,9.3-15.4c3.9-9.6,9.2-18.5,14.4-27.3
			c-6.6,5.4-13.9,9.9-21.7,13.5c-3.4,1.5-6.8,2.9-9.9,4.8c-2.1,1.3-4.1,2.9-6.1,4.4c-12.3,9.5-24.7,17.4-39.9,20.7
			c2.8-0.6,6.8-11.5,8.6-14c2.8-4.1,6.1-6.2,10.4-8.6c9-5.1,19.5-9.2,25.2-18.3c5-7.9,5.6-18.5,12.6-24.7
			c-7.7,4.9-11.6,14-18.7,19.7c-8.3,6.6-20,7.9-27.6,15.3c-3.2,3.1-5.4,7.2-8.2,10.6c-3.7,4.4-8.4,7.8-12.7,11.6
			c-10.1,8.7-14.9,20.2-23.6,29.6c-8.3,9.1-21,16.1-31.1,23c-46.4,31.2-92.8,62.4-139.2,93.6c2.4,0,10.7-12.2,12.5-14.3
			c4.5-5.1,8.9-10.2,13.4-15.3c7.6-8.7,16.3-16.1,24.6-24.2c3.7-3.7,7.5-7.4,11.7-10.5c5-3.6,10.6-6.4,15.5-10.1s9.2-8.9,9.9-15.1
			c-8.7,6.9-17.6,13.9-27.8,18.3c-3.5,1.5-7,2.7-10.4,4.4c-5.5,2.7-10.3,6.6-15.1,10.4c-8.5,6.8-17,13.6-25.5,20.4
			c-7.6,6-13.8,13.1-21.3,19.2c-8.2,6.6-16.3,13.3-24.1,20.4c-14.6,13.3-28.2,28.1-37.8,45.5c-7.3,13.3-12,27.7-20.2,40.5
			c-7,11-16.4,20.5-23.4,31.5c-12.8,20.2-16.8,45-10.8,67.7c20-19.7,17.5-52.8,37.6-72.3c9.1-8.9,21.9-13.8,31.3-22.5
			c17-15.6,20.5-40.6,37.7-55.9c14.6-13,36.1-16.5,53-26.9c10.1-6.2,18.2-14.6,26.8-22.4c39.9-36.6,90.2-61.8,139.7-86.6
			C345.3,530.4,330.2,538.5,317.2,547.5z"/>
		<path fill="#171616" d="M47.7,912.8c14-22.2,15.1-50.5,30.1-72.6c7-10.4,16.5-19.1,25.4-28.2c24.6-25.4,44.5-54.4,64.3-83.2
			c-12.2,6.1-24.4,12.3-36.5,18.4c23.6-23.4,46.8-47.2,69.4-71.3c12.2-12.9,24.9-28.1,22.9-45.2c-23.3,18.6-46.5,37.1-69.8,55.7
			c-14,11.2-28.1,22.5-39.4,36c-14.9,17.9-24.7,39-39.5,55.5c-16,17.9-21.3,36.2-29.8,58.5c-9.1,23.8-24.6,44.6-39.9,65
			c-1.6,2.2-3.3,4.4-4.9,6.6v50.9C17.6,945.7,36,931.2,47.7,912.8z"/>
		<path fill="#171616" d="M295.3,723.2c3.4-10,14.2-16,24-21.2c61-32.6,117.9-75.7,150.4-133.5c-15.4-0.3-29.5,8.2-39.9,18.7
			c-10.4,10.4-18.2,22.9-27.8,34c-34.5,39.4-91,57.4-127.7,95c-18.7,19.2-31.7,42.9-52,60.8c-7.8,6.9-16.6,12.8-24,20
			c-7.2,7-13,15-18.7,23c-21.8,30.3-43.6,60.7-65.4,91c15.9-6.8,30-17.1,40.7-29.8c9.6-11.4,16.5-24.6,25.5-36.4
			c20.9-27.5,52.1-46.6,83.3-63.9c18.8-10.4,38.8-21.3,49.3-39.1C302.9,746.5,291.9,733.3,295.3,723.2z"/>
		<path fill="#171616" d="M550.3,603.2c12.5-13.6,26.6-25.8,40.7-38c11.5-10,23.2-20,36.8-27.4c11.5-6.3,24.3-10.6,35.4-17.5
			c24.3-15.2,38.2-43.4,34.8-70.3c-9.2,24.7-40.7,34.6-68.3,40.5c-27.6,5.9-59.1,13.9-70.9,37.6c17.1-3,33.9-7.5,50-13.4
			c-14.5,15.7-33.4,27.9-54.2,35.2c-15.3,5.3-32.4,8.5-43.9,19.2c-11.2,10.5-14.6,25.9-21.7,39.1c-14.1,26.5-42.3,43.5-64.9,64.3
			c-23.7,21.8-39.2,51.3-67.2,67.9c-3.2,1.9-6.5,3.7-8.8,6.5c-2.5,3.1-3.5,7.1-5.3,10.5c-4.7,8.8-14.4,13.4-22.1,19.7
			c-9.4,7.6-16.2,17.9-22.9,28c1.6-2.4,10-4.8,12.8-6.3c4.5-2.5,9-5.1,13.3-7.9c8.7-5.7,15.9-13,24.2-19.1c6.4-4.8,15.3-7,22.5-10.8
			c9-4.8,17.7-10.3,24.9-17.6c9.8-10.1,15.8-22.9,24.4-33.9c25-31.7,69.2-45.1,99.5-72.5C530.7,626.6,539.9,614.4,550.3,603.2z"/>
		<path fill="#171616" d="M195.9,942.9c16.8-20.7,22.2-43,46.6-55.7c26.1-13.6,49.8-29,73.6-46.8c-10.6,13.9-21.2,27.9-31.7,41.8
			c28.8-8.5,47.7-33.9,74.6-46.7c10.7-5.1,22.3-8,33.3-12.4c42.2-16.8,71.4-52.5,98.7-86.7c-34.8,26.8-73.6,49.2-114.8,66.6
			c9.7-12.9,19.7-27.2,31.8-37.8c11.4-10,24.8-16.4,37.8-24.1c13.4-7.9,26.5-18.5,31.1-33.4c-14.2,15-38.1,16.4-53.5,30.1
			c-2.9,2.5-5.4,5.5-8.1,8.2c-3.3,3.3-6.8,6.2-10.4,9.2c-15.5,12.9-31,25.4-47.1,37.6c-9.7,7.3-19.5,14.7-30.1,21
			c-18.3,10.8-42.3,17.1-58,31.5c-16.6,15.1-27.9,31.8-47.5,44.9c-41.2,27.7-83.8,53.5-127.5,77.2c-7.7,4.2-15.6,8.4-23.2,13.1h59.7
			C156,972.3,179.9,962.6,195.9,942.9z"/>
		<path fill="#171616" d="M166.5,814.6c34.9-30,50.2-75.4,83.8-106.8c19.2-17.9,43.4-30.4,65.2-45.5c23.5-16.2,44.4-35.5,61.9-57.1
			c-83.5,34.6-155.5,92.5-204.2,164.1c-9.9,14.6-19,29.9-31.2,43c-14.4,15.4-32.8,27.5-45.8,44c-9.7,12.3-15.9,26.6-22.1,40.7
			c-6.9,15.8-13.8,31.7-20.7,47.5c36.8-23.2,44.9-70.6,75.6-100.4C140.4,833.2,154.5,824.9,166.5,814.6z"/>
		<path fill="#171616" d="M990.8,64c47,15.4,89.4,40.5,131.3,65.4c26.7,15.8,53.4,31.7,77.1,51.2c19.9,16.5,38.5,36,63.9,43.9
			c9.6,3,20.2,4.3,28,10.2c4.8,3.6,8,8.6,11.4,13.4c18.6,26.3,44.1,48.3,73.8,63.7c4.1,2.1,8.4,4.2,13.1,5.1
			c-2.6-18.4-19.2-32-33.8-44.7c-14.6-12.7-29.3-29.2-26.4-47.6c17.5,9.3,32.8,22.1,44.6,37.3c-12.6-27.7-34.6-51.8-62.2-67.7
			c-5.6-3.3-11.6-6.3-15.9-11c-6.7-7.4-8.1-17.5-12-26.4c-3.9-8.9-12.7-17.8-22.9-16c6.2,12,11.1,24.6,14.7,37.5
			c-13.7,1.3-25.7-8.3-33.7-18.6c-8.1-10.3-14.5-22.1-25.8-29.3c-14-8.9-32.6-8.7-47.5-16.1C1150,105,1138,85.1,1117.5,82
			c-11.6-1.7-24,2.5-35.1-1.1c-9.8-3.2-16.2-11.9-25.2-16.6c-6-3.1-12.8-4.5-19.5-5.7c-24.7-4.7-49.5-9.4-74.2-14.2
			C965.9,55.3,979.4,60.3,990.8,64z"/>
		<path fill="#171616" d="M1218.7,261.3c4.9,7.5,13.3,12.9,22.6,14.5c-1.7-11.8-13.4-19.7-24.2-26.2c-35.7-21.6-71.5-43.2-109-62
			c-18.5-9.3-37.8-18.1-52.6-31.9c-6.9-6.4-12.8-13.8-20.9-18.8c-7.3-4.5-16-6.8-24.5-9c-37.6-9.7-75.1-19.4-112.7-29
			c1.8,8,9.9,13.3,17.5,17.6c18.2,10.2,37.3,18.9,57,26.1c21,7.6,43.1,13.7,61.7,25.5c14.6,9.3,26.5,21.9,41.8,30.1
			c10.8,5.8,22.9,9.2,34.1,14.4c25.1,11.5,45.3,31.8,55.7,55.8c4,9.4,6.6,19.3,11.8,28.1c4.9,8.4,12.1,15.5,19.4,22.2
			c36.2,33.6,80.4,64,96.1,109.2c2.5,7.1,4.2,14.6,8.8,20.7c4.6,6.1,13.2,10.5,20.7,8c0.2-19.8-6.3-39.7-18.5-56
			c-5.6-7.5-12.5-14.5-15.1-23.3c-2-6.7-1.3-13.9-3.2-20.7c-2.2-7.9-7.6-14.6-12.8-21.1c-15.9-19.5-31.7-39-47.6-58.6
			C1221.3,272.3,1217.4,266.9,1218.7,261.3z"/>
		<path fill="#171616" d="M1214.3,422.3c4.8,2.9,9.5,5.9,14.4,8.5c13.9,7.5,29.2,12.1,44.4,16.5c-19.4-32.7-67.4-36.9-90.9-66.9
			c-4.6-5.8-8.2-12.6-14.2-16.9c-9-6.5-21.5-6.1-31.2-11.6c-10.7-6-16.5-18.1-25.8-26.1c-6-5.1-13.2-8.5-20.4-11.7
			c-7.7-3.5-15.4-7-23.1-10.5c-39.3-17.9-78.8-35.9-120.3-47.9c27,23,55.3,46.7,89.7,55.5c5.2,1.3,10.7,2.5,14.5,6.3
			c4,4.1,5.1,10.3,8.6,14.8c3,3.8,7.6,6.1,12,8.2c26.4,12.6,52.7,21.7,65.6,50.5c4.2,9.4,6,19.5,10.4,28.8
			c4.9,10.3,12.9,19,21.2,27.2c37,36.6,82.5,65.3,115.3,105.7c5.7,7,8.9,15.7,12.8,23.8c8,16.4,19.2,30.9,30.8,44.9
			c19.9,24,41.3,47.1,56.7,74.2c3.9-12.3,0.8-26.7-7.9-36.3c-2.5-2.8-5.5-5.2-7.7-8.3c-8.6-12.1-3.2-31.3-14.3-41.2
			c-3.4-3.1-7.9-4.7-11.5-7.4c-5.5-4.2-8.6-10.8-11.5-17.1c-9-19.6-21.2-35.6-29.1-56c-5.1-13.1-9.8-26.6-18.8-37.7
			c-13.2-16.1-33.1-24.4-46.8-39.9c-6.7-7.5-13.8-12.9-21.9-18.9c-6.4-4.8-19.2-20.1-26.5-21.6
			C1198,412.9,1206.2,417.4,1214.3,422.3z"/>
		<path fill="#171616" d="M883.5,63.8c5.6,1.2,11.1,2.7,16.3,4.7c22.9,9.2,41.7,27.5,66.7,31.7c0.5-8.9,15.2-8.1,23.9-4.3
			c51.4,22.8,100,50.9,144.7,83.6c15.9,11.7,32.3,24.4,52.3,27.8c-14.7-27.2-48.8-39-75.4-56.9c-36.4-24.4-68.6-57.5-111-72.3
			c-22.2-7.8-47.6-9.8-65-25.6c-3.2-2.9-6-6.2-9.7-8.5c-7.5-4.6-16.9-3.7-25.7-4.3c-34.7-2.4-63.6-28.7-98-34.1
			c8.2,6.5,16.5,12.9,24.7,19.4c-23.8,1-47.8-2.5-70.4-10c9.9,6.7,19.9,13.4,29.8,20.1c3.5,2.4,7.2,4.8,11.4,5.5
			c4.9,0.8,10-1,14.9-0.3c6.6,0.9,11.8,5.9,17.5,9.3C845.9,59.1,865.4,60,883.5,63.8z"/>
		<path fill="#171616" d="M365.3,424.3c9.1-9.6,8.9-23.8,14.5-35.4c13.2-27.5,52-32.8,80.1-47.9c47.6-25.5,67.9-82.9,116.8-106.1
			c12.1-5.8,25.4-9.1,38.2-13.3c15.9-5.2,31.2-11.8,46.2-18.9c14.1-6.7,23.6-13,40-10.9c30,3.8,55.4,20.5,83.7,29.8
			c12.8,4.2,26.1,7.5,38.2,13.3c49,23.3,69.2,80.6,116.8,106.1c28.2,15.1,66.9,20.4,80.1,47.9c5.6,11.6,5.5,25.8,14.5,35.4
			c3.3,3.5,7.5,6,11.7,8.6c23.7,14.3,44.7,33.1,67.8,49c7.5,5.2,15.1,10.4,23.4,14c7.7,3.4,16.2,5.4,22.7,10.7
			c6.4,5.1,10.4,12.8,16.5,18.2c6.8,6.1,15.8,9,24.5,11.8c12.6,4,25.2,8.1,37.8,12.1c-9-5.7-17.9-11.5-26.9-17.2
			c-19.8-12.7-42.1-25.9-56.5-44.9c-6.7-8.7-9.1-18.3-17.7-26.1c-8.6-7.8-19.1-13.4-28.9-19.7c-16.2-10.4-32.4-26.6-28.3-44.4
			c8.3,7.1,18.1,12.6,28.6,16.2c-18.9-19-37.8-38-56.7-57c-17.8-17.9-36.4-36.3-60.7-45.8c6.4,8.6,10,19,10.2,29.4
			c-32.5-2.2-46.1-39.7-73-56.7c-7.1-4.5-16-8.3-18.8-15.8c11.8,3.2,24,5,36.3,5.3c-21.1-16-42.2-31.9-63.3-47.9
			c-21.7-16.4-44.5-33.3-71.7-39.7c-12.3-2.9-24.6-2.4-37-3.7c-10.8-1.2-21.7-6.2-32-9.7c-4.6-1.5-9.1-3.1-13.9-3.7
			c-5.1-0.7-10.3-0.4-15.2-1.9c-7.2-2.2-13.3-8-20.9-7.9c-8.5,0.2-14.3,7.7-20.5,13.1c-11.8,10.1-21.7,9.4-37,9.8
			c-15.7,0.4-31.5,0.4-46.8,4c-27.2,6.3-50,23.2-71.7,39.7c-21.1,16-42.2,31.9-63.3,47.9c12.3-0.3,24.5-2,36.3-5.3
			c-2.8,7.5-11.7,11.3-18.8,15.8c-26.9,17-40.5,54.5-73,56.7c0.2-10.4,3.8-20.8,10.2-29.4c-24.3,9.5-42.9,27.9-60.7,45.8
			c-18.9,19-37.8,38-56.7,57c10.6-3.6,20.4-9.1,28.6-16.2c4.1,17.9-12.1,34-28.3,44.4c-12.5,8-25.9,15.2-35.6,26.7
			c-9.7,11.5-16.6,23.8-27.7,34.5c-6,5.8-12.1,11.7-19.2,16.2c-3.8,2.4-7.8,4.4-11.6,6.8c-10.6,6.8-18.9,16.5-27.1,26.1
			c6.4-3.2,12.8-6.4,19.2-9.6c4.2-2.1,8.5-4.2,11.9-7.5c2.5-2.3,4.5-5.2,7-7.4c9.1-8,23.3-6.6,33.8-12.6
			c11.1-6.3,16.2-19.6,25.5-28.3c5.6-5.2,12.5-7.9,18.8-11.7c7.2-4.3,14.3-9,21.5-13.4c15.4-9.3,30.8-18.5,46.2-27.8
			C357.8,430.3,362,427.7,365.3,424.3z"/>
		<path fill="#171616" d="M1319.7,663.7c-6.1-9.7-12.4-19.1-19.7-27.7c-7.5-8.9-16-16.8-23.3-25.9c-5.3-6.5-9.8-13.6-13.6-21.1
			c-2-4-3.9-8.2-7.2-11.2c-5.7-5.2-14.2-5.5-21.8-7c-32-6.3-54.1-36.4-84.6-47.7c8,10.2,18.2,18.7,29.6,24.8
			c4.9,2.6,10,4.8,14.8,7.7c18.7,11.2,30.3,31.7,48.7,43.4c-17.6-2.8-34.7-10.3-47.2-22.9c-3.8-3.8-7.3-8.2-11.9-10.9
			c-5.7-3.4-12.5-4.2-18.8-6.3c-20.4-7-40.5-26-58.4-38c-12.4-8.3-24.9-16.7-34.8-27.5c-18.8-20.4-31.8-51-60.6-54.2
			c11.7,11.3,21.9,24,30.2,37.6c-19.5-4.2-38.2-11.7-54.9-21.9c-5,5.8-0.1,14.2,4.8,20.1c46.5,55.9,98.1,108.1,154.1,156.1
			c-10.3-33.1-32.5-62.8-62.3-83.4c-13-9-28.1-17.1-34.6-30.8c49.5,24.7,99.8,49.9,139.7,86.6c8.6,7.9,16.7,16.3,26.8,22.4
			c16.9,10.3,38.4,13.9,53,26.9c15.7,14,22.7,36.7,35.1,53.4c12.6,17,25.9,31,42,45.7c20,18.2,28.3,45.9,45.2,67
			c3.1,3.9,6.4,7.5,9.9,11v-47.4c-19.8-26.2-39.3-52.6-56.9-79.9C1335.1,689.8,1327.7,676.5,1319.7,663.7z"/>
		<path fill="#171616" d="M1285.8,722.4c-11.3-13.6-25.4-24.8-39.4-36c-23.3-18.6-46.5-37.1-69.8-55.7c-2,17,10.8,32.2,22.9,45.2
			c22.7,24.2,45.8,47.9,69.4,71.3c-12.2-6.1-24.4-12.3-36.5-18.4c19.8,28.8,39.7,57.7,64.3,83.2c8.8,9.1,18.3,17.9,25.4,28.2
			c18.5,27.2,18.2,62.9,38.1,89.3c3.3,0.1,6.5,0.2,9.8,0.3c-3.4-56.1-29.5-108.5-55.3-159.4C1306.4,753.7,1297.9,736.9,1285.8,722.4
			z"/>
		<g>
			<path fill="#171616" d="M937.2,446.2c-1-0.5-2-1.1-2.9-1.6c0,0.1,0.1,0.1,0.1,0.2C935.2,445.4,936.1,445.9,937.2,446.2z"/>
			<path fill="#171616" d="M955.4,487c-7.2-14-12.8-28.9-21-42.3c-0.2-0.1-0.4-0.3-0.6-0.5c0.1,0.1,0.3,0.2,0.4,0.2
				c-1.3-2.1-2.6-4.1-4.1-6.1c-1.8-4.9-2.5-11-4.8-15.7c-2.9-5.7-8.2-9-14-11.9c-1.2-4.2-1-8.3,1.5-12.3c0.6,0,1.3,0,1.9,0
				c2.2,0.7,4.4,1.3,6.7,1.7c5.7,1.2,11.5,1.7,17.2,3.1c5.7,1.4,11.2,3.7,16.7,6c13.2,5.5,26.5,11,39.7,16.6
				c-12.5-9.3-21.8-22.2-32.6-33.4c-10.1-10.5-22.6-20-36.9-22.1c-9-6.8-18.4-13.1-28-19.2c-0.3-0.4-0.5-0.8-0.8-1.1
				c-8.3-11.5-22.3-16.3-34.5-22.4c-3.5-1.8-25.9-18.7-28.7-16.1c5.3-5,13.7-1.5,20.6,0.8c8.5,2.8,17.8,3.1,26.5,0.9
				c-14-7.7-28-15.4-42.1-23c-4-2.2-8-4.4-11.1-7.6c-4.3-4.4-6.5-10.4-10.2-15.3c-7-9.2-19.6-13.7-30.9-11
				c7.1,5.8,13.7,12.3,19.5,19.4c1.7,2.1,3.4,4.5,3.1,7.2c-0.4,2.9-3.5,4.9-6.4,5.1c-2.9,0.2-5.8-0.8-8.6-1.9
				c-7.7-2.9-14.6-6-21.7-9.9c-2.5-1.4-19.7-6.5-20-7c-0.8-1.4-0.8-3.2,0-4.6c5.8-0.9,11.6-1.8,17.4-2.8
				c-10.7-5.6-22.4-9.5-34.5-11.7c-5-0.9-10.2-1.5-14.8-3.5c-8.3-3.5-14.6-11.1-23.6-12.3c-7.8-1-15.3,3.2-21.7,7.5
				c-8.2,5.5-16.2,11.3-25.4,15.2c-14.6,6.2-32.8,7.9-42.3,19.9c12.5,0,24.9,0.1,37.4,0.1c-0.8,0-12,11.9-14.4,13.3
				c-6.1,3.5-12.1,4.9-18.9,6.4c-16.8,3.5-31.6,13.6-46.7,21.7c-4.8,2.6-9.8,5.2-13.8,9c-6.5,6.1-10.7,15-18.9,18.4
				c-4.5,1.9-9.6,1.6-14.4,2.4c-7.9,1.3-15,5.2-21.9,9.1c-22,12.7-43,27.2-62.7,43.2c31.4-2.1,59.8-18.6,86.8-34.7
				c-11.6,6.9-15.4,22.2-21.4,33.3c-6.5,12.2-16.2,23.9-25,34.5c-8.4,10.2-14.2,22.2-19.7,34.1c-5.7,12.3-15.8,22-24.7,32
				c-6.5,7.3-13,14.6-19.6,21.9c-2.7,3-5.4,6.1-8.1,9.1c-11.5,12.8-22.9,25.7-35.2,37.7c-15.8,15.4-33,29.6-46.6,47
				c32.6-17.4,65.4-35.1,93.4-59.2c4-3.5,7.9-7.1,12.1-10.3c4.5-3.5,9.3-6.6,14.2-9.7c24.3-15.3,48.9-27.7,66.3-51.3
				c10.2-13.8,15.3-30.2,22.3-45.6c8.8-19.1,20.8-34.5,37.8-47.1c5.1-3.8,11-6.6,15.3-11.3c6.7-7.3,8-17.8,14.2-25.4
				c5.6-6.8,15.1-10.8,22.5-15.4c20.8-12.8,42.2-24.1,65-33c5.8-2.3,11.8-4.5,17.3-7.4c5.5,2.9,11.5,5.1,17.3,7.4
				c22.3,8.7,36.5,17.4,52.1,35.3c12.6,14.5,23.6,32.6,42.6,39.4c7.5,2.7,15.7,3.3,22.6,7.4c9.5,5.6,13.9,16.1,19.9,25
				c6.2,9.2,13.1,14.9,17.8,25.1c7.1,15.4,12.1,31.8,22.3,45.6c6.9,9.4,16,17.2,25.1,24.7c40,32.8,84.1,61.2,131.1,84.6
				C1014.3,562.2,977.1,529,955.4,487z"/>
		</g>
		<path fill="#171616" d="M1201.7,797c-7.4-7.2-16.2-13.2-24-20c-20.2-17.9-33.2-41.6-52-60.8c-36.7-37.6-93.2-55.7-127.7-95
			c-9.7-11-17.4-23.5-27.8-34c-10.4-10.4-24.6-19-39.9-18.7c32.5,57.8,89.4,100.9,150.4,133.5c9.8,5.2,20.7,11.2,24,21.2
			c3.4,10-7.6,23.3-17.8,18.5c10.5,17.8,30.5,28.7,49.3,39.1c31.2,17.3,62.4,36.4,83.3,63.9c9,11.8,15.9,25,25.5,36.4
			c10.8,12.7,24.8,23.1,40.7,29.8c-21.8-30.3-43.6-60.7-65.4-91C1214.7,812,1208.9,804,1201.7,797z"/>
		<path fill="#171616" d="M975.9,672.5c-22.6-20.8-50.8-37.8-64.9-64.3c-7-13.2-10.4-28.6-21.7-39.1c-11.5-10.7-28.6-13.9-43.9-19.2
			c-20.9-7.3-39.7-19.5-54.2-35.2c16.1,6,32.9,10.5,50,13.4c-11.8-23.8-43.3-31.7-70.9-37.6c-27.6-5.9-59.1-15.8-68.3-40.5
			c-3.4,26.9,10.5,55.1,34.8,70.3c11.1,6.9,23.9,11.2,35.4,17.5c13.6,7.4,25.3,17.5,36.8,27.4c14.1,12.2,28.2,24.4,40.7,38
			c10.3,11.2,19.5,23.4,30.9,33.7c30.3,27.5,74.5,40.8,99.5,72.5c14.1,17.9,25.3,40.4,41.9,56.1c9,8.4,21.6,11.3,33.2,15.4
			c11.5,4.1,22.3,9.6,33.2,15.2c18.9,9.7,37.9,19.4,56.8,29.2c10.5,5.4,21,10.8,30.1,18.2c10.7,8.7,19.1,20,30.4,28
			c-0.6-9.4-5.2-18-10-26.1c-2.9-4.9-5.9-9.9-10.2-13.6c-8.5-7.2-20.5-8.4-30.7-13.1c-10.5-4.9-18.8-13.7-29.4-18.5
			c-15.2-6.9-35.4-6.2-44.6-20c-2.1-3.2-3.4-7-5-10.5c-9.7-21.7-30.4-34.3-50.5-45.2C1005.6,713.5,992.9,688.2,975.9,672.5z"/>
		<path fill="#171616" d="M1235.7,933.1c-26.2-18.5-51-38.7-73.9-60.6c-10-9.5-19.7-19.4-31.1-27.4c-18-12.7-39.5-20.3-58.5-31.5
			c-10.6-6.3-20.3-13.6-30.1-21c-27.3-20.6-54.5-41.1-81.8-61.7c23.1,22.4,44.3,46.5,63.5,72c-41.2-17.4-80-39.8-114.8-66.6
			c27.2,34.2,56.4,70,98.7,86.7c11,4.4,22.7,7.3,33.3,12.4c26.8,12.8,45.8,38.2,74.6,46.7c-10.6-13.9-21.2-27.9-31.7-41.8
			c8.8,11.6,21.6,21.4,31.1,33.5c12.9,16.4,32.1,27.4,48.5,39.7c22.7,17,42.8,37.2,65.9,53.7c6.5,4.7,13.2,9,20,13h69.3
			c-6.7-5-13.5-10-20.2-14.9C1279.3,951.4,1258.8,937.4,1235.7,933.1z"/>
		<path fill="#171616" d="M1303.8,856.4c-13-16.5-31.4-28.5-45.8-44c-12.2-13.1-21.3-28.4-31.2-43
			c-48.7-71.6-120.7-129.5-204.2-164.1c17.5,21.6,38.4,40.9,61.9,57.1c21.9,15.1,46.1,27.5,65.2,45.5
			c33.6,31.4,48.8,76.7,83.8,106.8c12,10.3,26,18.5,37.3,29.5c30.7,29.8,38.8,77.2,75.6,100.4c-6.9-15.8-13.8-31.7-20.7-47.5
			C1319.7,882.9,1313.5,868.7,1303.8,856.4z"/>
		<path fill="#171616" d="M804.3,471.5c10.8,7.1,24.2,10,36.2,15.2c23.1,10.2,41.4,29.4,66.1,35.6c-19-23.8-43.1-44-70.5-59.2
			c-6.7-3.7-13.7-7.2-19.2-12.4c-8.9-8.5-12.6-20.5-19.3-30.6c-11.8-17.9-32.6-29.2-53.6-37.2c-5.6-2.1-11.3-4.1-16.3-7.4
			c-4.4-2.9-8.1-6.7-12.6-9.5s-10.4-4.4-15.3-2.4c-1.1-3.5-2.2-7.2-4.7-10s-6.7-4.7-10.5-3.5c-1.8,0.6-3.3,1.8-4.7,2.9
			c-5.7,4.7-11.4,9.3-17.1,14c-5.3,4.3-10.7,8.8-13.4,14.8c-1.2,2.7-1.8,5.6-3.1,8.2c-1.4,2.6-3.4,4.9-5.5,7
			c-8.8,8.9-19.3,16.3-30.8,21.9c-9.6,4.6-20.4,8.4-26.6,16.5c-4.5,5.9-5.9,13.3-10.1,19.4c-5.5,8.1-15,12.8-23.3,18.4
			c-15.1,10.2-27.1,24.4-34.3,40.3c8.8-5.9,17.8-12,25-19.5c3.7-3.9,7-8.3,11.2-11.9c4.4-3.7,9.7-6.5,15-9.1
			c12.8-6.4,26.3-12.9,34.6-23.9c3.8-5,6.4-10.7,10.8-15.3s11.6-7.6,17.6-5.1c0.1,2.7,0.1,5.3,0.2,8c17-7.6,32.2-18.5,44.3-31.8
			c1.5-1.7,3.1-3.5,5.3-4.4c2.3-0.9,4.9-0.7,7.3-0.2c30.7,5.9,44.8,44.1,75.7,49.1c-3.6-5.3-5.7-11.4-6.3-17.6
			C777.2,438,786.7,459.9,804.3,471.5z"/>
		<path fill="#171616" d="M832.4,776.2c-9.9-1.9-20.2-1.7-30.2-3.6c-17.3-3.2-32.5-12.4-47.2-21.3c-13.9-8.5-27.8-16.9-41.6-25.4
			c-9.4,11.5-26.7,13.5-41.5,17.9c-46.6,13.9-75,56.3-113.4,84.5c-65.1,47.7-156.5,52.5-226.8,93.5c68.5-34.6,155.4-30.5,220.5-70.4
			c-2.3,9.8-4.7,19.6-7,29.3c21.4-13.7,40.6-30.2,57-48.8c10.7-12.1,20.4-25.4,34.4-34.3c22.8-14.5,54.3-15.7,73.8-33.7
			c-15.7,1.1-31.3,2.1-47,3.2c9.5-5.9,19-11.8,28.5-17.6c6.4-4,15-7.9,21.2-3.8c2.5,1.7,4,4.4,5.6,6.9
			c18.9,29.9,61.2,36.7,97.1,46.5c37.7,10.3,73.2,27,104.4,49.1c-36.2-7.7-73.8-9.9-110.8-6.2c28.7,22.8,72.8,16.9,107.3,31.4
			c15.4,6.5,28.5,16.9,43,25.1c14.5,8.2,31.7,14.2,48.2,10.5c-18.4-8.5-33-23.8-39.8-41.8c39.8,21.2,81.6,43,127.5,44.6
			c-74.3-35-146.8-73.4-217.1-115.1C864.1,788.3,849.2,779.4,832.4,776.2z"/>
		<path fill="#171616" d="M419.5,854c19.1-8,36.3-19.5,53.2-31c20.6-13.9,41.2-27.8,61.8-41.7c22.1-14.9,44.3-29.9,64-47.5
			c36.1-32.1,62.9-71.9,89.3-111.3c-20.9,13.6-41.9,27.2-62.8,40.9c-11.9,7.7-23.8,15.5-33.9,25.1c-16.6,15.8-27.7,35.9-43.4,52.6
			c-11.5,12.2-25.3,22.2-39,32.3c-14.5,10.5-28.9,21.1-43.4,31.6c-18.3,13.3-36.8,26.8-58.2,35.4c-16.6,6.7-34.5,10.3-50.9,17.2
			c-14.1,5.9-26.9,14.2-39.4,22.6c-24.2,16.5-47.6,34-69.9,52.5c44.8-12.3,80-44.6,123.1-61.5C386.2,864.8,403.4,860.7,419.5,854z"
			/>
		<path fill="#171616" d="M836,690.3c-10-9.7-22.1-17.4-35.3-22.1c-10-3.6-21-5.8-28.8-12.9c-9.6-8.7-12.4-22.7-20.5-32.8
			c-6.3-7.9-15.5-13-23.6-19.1c-16.7-12.8-29.1-31-34.7-51.3c-0.2-0.9-40.4,30.7-44.4,33.8c-19.8,15.1-38.7,31.2-57.8,47
			c-6.8,5.6-13.6,11.3-21.2,15.8c-8,4.8-17.2,8.6-22.8,16.1c-2.5,3.3-4.1,7.1-6,10.7c-7.3,13.6-19.3,24.6-33.6,30.6
			c11,1.8,23.3,3.2,32.4-3.2c7.8-5.5,11.1-15.3,16.9-22.9c14.1-18.6,45-33.3,65.2-44.6c5.8-3.2,72-50.9,75.6-41
			c8.1,22.3,19.4,43.3,33.2,62.5c4.9,6.8,9.5,17,15.4,22.7c8,7.7,21.2,8,29.7,15.5c9.4,8.2,12.8,22.4,23.7,28.6
			c8.4,4.8,18.8,3.4,28.3,5c8.5,1.5,16.3,5.4,23.9,9.5c24.9,13.4,48.7,29,71.1,46.3c-13.4-18.8-29.5-35.7-47.5-50.1
			c-5.2-4.2-10.7-8.2-15.2-13.2c-4.9-5.5-8.6-11.9-12.9-17.9C843.9,698.7,840.1,694.3,836,690.3z"/>
		<path fill="#171616" d="M642.5,88.5c4.3-1.5,8.2-4.3,12.1-6.7c10.7-6.5,26-8,38.3-7.4c19.4,1,37.3,9.1,55.4,15.7
			c38.7,13.9,80.3,20.8,121.8,20.1c-17.3-11.2-35-22.5-55.3-28c-10-2.7-20.4-3.9-30.7-5.9c-27.7-5.5-53.8-17.2-75.7-33.7
			c-3.2-2.4-6.5-5.1-10.6-5.7c-5-0.7-9.9,1.7-14.3,4.1c-28.4,15.5-57.3,30.1-88.6,39.3c-3.2,0.9-6.4,1.8-9.2,3.4
			c-4.6,2.6-7.9,6.9-11.9,10.3c-7.5,6.2-17.2,8.9-26.5,11.9c-16.2,5.3-31.9,12.3-46.8,20.8c11.6,1.7,23.1-2.5,34.3-6.1
			c16.2-5.1,32.9-8.9,49.8-10.2c6.1-0.5,12.5-0.7,17.9-3.5c9.1-4.6,14.6-15.8,24.7-17.3c3.4-0.5,6.8,0.2,10.2-0.1
			C639.2,89.5,640.9,89.1,642.5,88.5z"/>
		<path fill="#171616" d="M144.2,85.1c4.6-0.7,10.2-0.7,14.5-2.6c5.8-2.5,11.2-7.6,16.8-10.7c11.9-6.6,24.6-11.7,37.8-15
			c-0.8,10.6-9.6,18.8-18.9,24c-9.3,5.2-19.7,8.5-27.9,15.2c-2,1.6-3.9,3.5-5.9,5c-3.6,2.7-7.7,4.5-11.6,6.7
			c-7.2,4-13.7,9.2-19.2,15.3c10.8-4.9,22.9-5.9,34.7-7.9c11.7-2,23.9-5.4,32.2-13.9c3.8-3.9,6.6-8.7,10.7-12.3
			c5.5-5.1,12.9-7.7,20-10.1c14.6-5,29.3-10.1,43.9-15.1c3.8-1.3,7.6-2.6,11.1-4.5c4.6-2.4,8.7-5.8,12.8-9
			c8.3-6.4,17.1-12.2,26.9-16c5.7-2.2,11.7-3.7,17.5-6c10.5-4.2,20-11.1,27.2-19.9c-10.5,6-22.2,10-34.2,11.7
			c-14.5,2-27.2,5.6-41.2,9.2c-8.1,2.1-15.9,5.4-23.9,7.9c-8,2.5-17.3,3.1-25,6c6.5-2.4,13.3-6,18.4-10.8c4.4-4.2,5.5-10.1,9.7-15
			c2.5-2.9,4.8-6.8,3.5-10.4c-18-1.4-36.4-1.4-53.8,3.2c-4.9,1.3-9.6,2.9-14.4,4.5c-13.4,4.5-26.9,9.1-38.6,16.9
			c-8.6,5.8-16.1,13.3-25.1,18.5c-11.8,6.8-25.6,9.3-37.4,16c-14.8,8.4-25.3,22.7-39,32.8c-11.9,8.8-24,13.5-34,24.9
			c-4.4,5-8.4,10.3-11.8,16.1c-2.2,3.8-4.7,14.7-7.7,17.1c16.1-12.7,32.3-25.3,48.4-38c13-10.2,26.3-20.6,41.9-26
			C115.8,88.1,130.2,87.4,144.2,85.1z"/>
		<path fill="#171616" d="M1172.7,65.1c19,9.9,39.6,16.7,60.8,20.1c14,2.2,28.4,3,41.8,7.7c15.6,5.4,28.9,15.8,41.9,26
			c16.1,12.7,32.3,25.3,48.4,38c-7.4-23.8-26.5-41.9-45.7-57.7c-15.1-12.4-30.8-24-47.3-34.6c-11.9-7.6-27.3-21.7-41.6-22.8
			c-6.4-0.5-13.3,0.5-18.7-2.9c-2.5-1.6-4.3-4-6.6-5.9c-5.9-4.9-14.1-5.9-21.8-5.4c-7.7,0.4-15.3,2-22.9,1.4
			c-22.1-1.9-37-18-59.9-16.8c6.8,14.2,19.4,25.6,34.2,31c-37.5-5.1-74-31.4-110-19.8c11,5,21.5,12.3,32.4,16.9
			c12.9,5.5,22.4,0.6,34.1,11c4.8,4.3,10.5,7.5,16.6,9.4c3.3,1,6.7,1.7,9.5,3.7c2.7,1.9,4.6,4.9,7.6,6.3c2.1,1,4.4,1.2,6.7,1.5
			c11.9,1.6,21.4,9.5,32.2,14.4c14.1,6.4,28.1,12.8,42.1,19.1C1193.2,94.1,1181.7,80.3,1172.7,65.1z"/>
		<path fill="#171616" d="M132.2-0.2H86.4c-2.2,1.5-4.4,3-6.5,4.4C58,19,35.8,34.2,19,54.6C12.7,62.2,7,70.6,0,77.5v23.1
			c7.2-4.5,14-9.7,20.6-14.8C57.8,57.1,95,28.4,132.2-0.2z"/>
		<path fill="#171616" d="M86.8,340.3c0.7-0.6,1.4-1.3,2.1-1.9c3-3.1,4.9-7.3,5.3-11.6c-5.2,4.1-11.2,7.1-16.6,10.9
			c-4.4,3.2-8.5,6.9-12.5,10.6c-2.2,2.1-4.4,4.1-6.6,6.2c-1.1,1-2.5,2.1-3.9,1.7c1.6-11.4,14.4-23.4,21.1-32.6
			c8.3-11.5,16.7-23,25.1-34.4c6.4-8.6,14.2-15.2,22.3-22.2c3.9-3.3,7.7-6.7,11.1-10.5c1.6-1.8,6.3-11.1,7.9-11.6
			c-12.8,4-24.9,10.3-35.5,18.6c-3.3,2.5-6.4,5.3-8.9,8.6c-3.3,4.3-5.3,9.4-7.8,14.3c-9.5,18.4-26.4,30.1-42,42.9
			C31.1,342.8,14.5,356.8,0,372.9V439c3.3-3.9,6.6-7.7,9.9-11.6c11.9-14,23.7-28,35.6-42c10.2-12,22.3-22,31.7-34.4
			c2.1-2.8,4.2-5.8,6.8-8.2C84.8,341.9,85.8,341.1,86.8,340.3z"/>
		<path fill="#171616" d="M30.4,197.4c18.8-21.6,36.4-44.8,59.8-61.3C53.9,147.5,28.1,178.2,0,204.1v25.6
			C10.5,219.3,20.7,208.5,30.4,197.4z"/>
		<path fill="#171616" d="M96.4,480.4c1.2-1.5,2.3-3.1,3.3-4.7C98.6,477.2,97.5,478.8,96.4,480.4z"/>
		<path fill="#171616" d="M35.4,524.8c-12.3,7.4-24.1,15.6-35.4,24.4c0,0,0,42.6,0,42.6c14.3-14.4,28.3-29.1,41.9-44.2
			C54,534.2,64,520,78.7,509.6c3.3-2.4,6.7-4.7,9.2-7.9c4.2-5.3,5.8-12.4,9.8-17.9c5.5-7.6,15.3-11.5,20-19.6
			c-9.4,6.6-22.3,7.3-30.8,15.1c-4.7,4.3-7.6,10.5-12.7,14.3c-2.9,2.2-6.2,3.5-9.2,5.5c-2.3,1.6-4.4,3.6-6.4,5.5
			C51.1,511.8,44.3,519.4,35.4,524.8z"/>
		<path fill="#171616" d="M340.8,44.2c-6.6,3.9-12.7,8.8-17.9,14.5c8.2-1.8,16.4-3.7,24.6-5.5c7.8-1.7,15.8-3.6,22-8.5
			c2.7-2.1,5.1-4.9,8.4-5.9c2.4-0.8,5-0.5,7.5-0.6c8.1-0.4,16.7-5.2,24.6-7.2c9.9-2.4,19.8-4.9,29.6-7.3c30-7.4,60.1-14.8,89.7-23.9
			h-93.4c-5.5,1.5-10.8,3.3-16,5.4c-19,8-32.7,22.4-52.9,28.8c-4.2,1.3-8.4,2.4-12.5,3.8C349.8,39.5,345.2,41.6,340.8,44.2z"/>
		<path fill="#171616" d="M1400,110.1V89.5c-3.2-1.4-6.4-3-9.4-4.8c-11.6-7.3-19.1-19.5-27.9-30.1c-16.8-20.4-39-35.5-60.9-50.4
			c-2.2-1.5-4.4-3-6.5-4.4h-45.8c37.2,28.7,74.4,57.3,111.6,86C1373,95.1,1386,104.6,1400,110.1z"/>
		<path fill="#171616" d="M1253.7,264.1c10.1,10.5,18.2,23.2,26,35.6c5.3,8.5,10.6,16.9,16,25.4c-11.3-4.4-22.1-10.1-32.1-17
			c14.9,25.2,34.5,47.3,55.6,67.5c18.1,17.3,36.4,32.7,52.6,51.7c9.3,11,18.6,21.9,28.2,32.7v-63.6c-0.8-1.3-1.7-2.5-2.6-3.8
			c-14.4-20.6-32.9-37.9-52.1-54c-18-15.2-33.2-34.1-48.7-52.1c-14-16.2-27.9-33.3-46.4-44c-17.5-10.1-40-15.4-49.5-33.2
			c3,13.1,11,24.9,22,32.6c4.9,3.4,10.4,6,15.4,9.2C1243.9,254.8,1249,259.2,1253.7,264.1z"/>
		<path fill="#171616" d="M1291.4,136c23.4,16.5,41,39.8,59.8,61.3c15.3,17.5,31.6,34.1,48.8,49.7V220c-4-3.2-7.9-6.5-11.8-9.9
			C1357.4,183,1330.5,148.4,1291.4,136z"/>
		<path fill="#171616" d="M1285.2,480.4c-1.1-1.6-2.2-3.1-3.3-4.7C1283,477.3,1284.1,478.8,1285.2,480.4z"/>
		<path fill="#171616" d="M1288,478.2c10.7,13.7,21.3,27.5,32,41.2c2.8,3.5,5.5,7.2,7.1,11.4c1.8,5,1.8,10.6,3.9,15.5
			c2.7,6.3,8.7,10.6,14.4,14.5c20.7,14.2,36.7,31.8,54.6,49.4c0,0,0-45.4,0-45.4c0-7.2-32.8-26.5-38.8-30.5
			c-13.2-8.8-22.8-14-33.6-26.6c-14.3-16.7-31.2-31.2-49.9-42.8C1281.2,469.3,1284.6,473.8,1288,478.2z"/>
		<path fill="#171616" d="M983.5,33.9c32.4,8,64.6,13.5,94.5,29.1c-15.8-8.2-30.7-18.3-44.2-29.8c-6.1-5.2-12.1-10.8-19.3-14.3
			c-7.3-3.6-15.4-4.9-23.4-6.2c-10.9-1.7-19.4-3.3-29.5-7.5c-5.2-2.2-10.6-3.9-16-5.4h-93.4c29.6,9,59.7,16.5,89.7,23.9
			C955.7,27,969.6,30.5,983.5,33.9z"/>
		<path fill="#171616" d="M426.8,936.6c-2.9,9.2-5.8,18.5-8.8,27.7c45.7-10,90.1-23.5,135.4-34.6c7.3-1.8,14.6-3.6,21.1-7.5
			c11.7-7,19.1-20.1,31.3-26.2c11.4-5.7,25.6-4.6,36.1-11.8c4-2.8,7.2-6.6,10.3-10.4c8.6-10.4,17.2-20.8,25.8-31.2
			c3-3.7,6.3-8,5.4-12.7c-16.4,2.2-26.8,18-39,29.2c-50.1,45.7-132.5,35.3-183.5,79.3c17.8-15.3,32.9-33.8,44.3-54.3
			c-24.3,20.7-62.6,11.6-90.8,26.5c-18.6,9.8-30.4,28.6-46.3,42.3c-13.7,11.8-30.4,19.8-47.5,27.2h51.1
			C391.9,968.3,410.5,953.6,426.8,936.6z"/>
		<path fill="#171616" d="M975.2,910.8c-28.2-14.9-66.5-5.9-90.8-26.5c11.4,20.5,26.5,39,44.3,54.3c-21.2-18.3-55.8-27.6-82.1-35.3
			c-22.7-6.7-42.5-18-65.6-24.1c-2.5-0.6-5-1.4-7-2.8c-2.1-1.5-3.6-3.6-5.4-5.3c-9.8-9.1-26.2-6.2-37.2-13.7
			c-5.7-3.9-9.2-10.1-13.5-15.5c-4.3-5.4-10.2-10.4-17.1-10.1c-0.3,5.3,4,9.7,7.9,13.3c13,12,25.9,24.1,38.9,36.1
			c5.9,5.5,11.9,11.1,18.9,15.1c5,2.9,10.4,5,15.9,7c30.4,11.5,57.3,26.8,88.6,36.3c17,5.1,34.1,9.5,51.3,13.7
			c5.6,1.3,47.9,7.1,49.2,11.1c-2.9-9.2-5.8-18.5-8.8-27.7c16.3,17,35,31.7,55.2,43.6h51.1c-17.1-7.4-33.8-15.4-47.5-27.2
			C1005.5,939.4,993.7,920.6,975.2,910.8z"/>
		<path fill="#171616" d="M820.3,954.3c-15.1-8.8-29.5-20.5-46.8-22.6c-7.6-0.9-15.5,0.1-23.1-1.3c-20.8-3.7-37.4-24.7-58.4-22.3
			c-9,1-16.8,6.4-24.5,11.2c-30.8,19.7-64.5,34.8-99.8,44.6c-20.6,5.7-41.9,9.7-62.2,16.2h60.4c7.9-2.9,15.8-5.7,23.7-8.6
			c21.2-7.7,42.4-15.4,64-21.8c12.1-3.6,25.2-6.7,37.2-2.6c6.5,2.3,12.1,6.5,18.4,9.4c19.1,8.7,41.4,3.3,62.3,5.2
			c19.9,1.8,38.4,10.1,56.7,18.4h55.1c-0.8-0.3-1.6-0.5-2.3-0.8C860.2,972.5,839.2,965.4,820.3,954.3z"/>
	</g>
</g>
</svg>
